<svg width="49" height="48" viewBox="0 0 49 48" fill="none" xmlns="http://www.w3.org/2000/svg">
<path fill-rule="evenodd" clip-rule="evenodd" d="M25.599 27.46H29.0248C29.8366 27.46 30.5099 26.8 30.5099 25.98C30.5099 25.14 29.8366 24.48 29.0248 24.48H25.599V21.02C25.599 20.2 24.9455 19.54 24.1337 19.54C23.3218 19.54 22.6485 20.2 22.6485 21.02V24.48H19.2426C18.4307 24.48 17.7574 25.14 17.7574 25.98C17.7574 26.8 18.4307 27.46 19.2426 27.46H22.6485V30.92C22.6485 31.74 23.3218 32.4 24.1337 32.4C24.9455 32.4 25.599 31.74 25.599 30.92V27.46ZM39.1761 18.0512C39.6416 18.0458 40.1484 18.04 40.6089 18.04C41.104 18.04 41.5 18.44 41.5 18.94V35.02C41.5 39.98 37.5198 44 32.5891 44H16.8465C11.698 44 7.5 39.78 7.5 34.58V13.02C7.5 8.06 11.5 4 16.4307 4H27.0049C27.5198 4 27.9158 4.42 27.9158 4.92V11.36C27.9158 15.02 30.9059 18.02 34.5297 18.04C35.3761 18.04 36.1224 18.0463 36.7754 18.0519C37.2834 18.0562 37.7351 18.06 38.1337 18.06C38.4155 18.06 38.7809 18.0558 39.1761 18.0512ZM39.72 15.1324C38.0923 15.1384 36.1735 15.1324 34.7933 15.1184C32.6032 15.1184 30.7992 13.2964 30.7992 11.0844V5.8124C30.7992 4.9504 31.8349 4.5224 32.4269 5.1444C33.498 6.26918 34.9696 7.81506 36.4347 9.35412C37.8978 10.891 39.3544 12.4212 40.3992 13.5184C40.9774 14.1244 40.5537 15.1304 39.72 15.1324Z" fill="url(#paint0_linear_6089_15056)"/>
<defs>
<linearGradient id="paint0_linear_6089_15056" x1="41.5" y1="44" x2="0.153305" y2="33.8101" gradientUnits="userSpaceOnUse">
<stop stop-color="#6949FF"/>
<stop offset="1" stop-color="#876DFF"/>
</linearGradient>
</defs>
</svg>
