<svg width="20" height="21" viewBox="0 0 20 21" fill="none" xmlns="http://www.w3.org/2000/svg">
<path d="M7.91602 13.0132C11.305 13.0132 14.166 13.5705 14.166 15.7241C14.166 17.8778 11.2867 18.4165 7.91602 18.4165C4.52704 18.4165 1.66605 17.8584 1.66602 15.7056C1.66602 13.5519 4.54454 13.0132 7.91602 13.0132ZM15.832 6.75049C16.2455 6.7506 16.5811 7.09185 16.5811 7.51025V8.48975H17.584C17.9964 8.48999 18.3329 8.83129 18.333 9.24951C18.333 9.66784 17.9965 10.009 17.584 10.0093H16.5811V10.9907C16.5809 11.409 16.2454 11.7504 15.832 11.7505C15.4194 11.7505 15.0831 11.4091 15.083 10.9907V10.0093H14.082C13.6685 10.0093 13.333 9.66799 13.333 9.24951C13.3331 8.83114 13.6686 8.48975 14.082 8.48975H15.083V7.51025C15.083 7.09178 15.4194 6.75049 15.832 6.75049ZM7.91602 2.5835C10.2115 2.5835 12.0518 4.44777 12.0518 6.77295C12.0515 9.09793 10.2114 10.9614 7.91602 10.9614C5.62068 10.9614 3.78049 9.09793 3.78027 6.77295C3.78027 4.44777 5.62054 2.5835 7.91602 2.5835Z" fill="white"/>
</svg>
