<svg width="24" height="24" viewBox="0 0 24 24" fill="none" xmlns="http://www.w3.org/2000/svg">
<path fill-rule="evenodd" clip-rule="evenodd" d="M8.7587 6.50024H15.2413C16.0463 6.50023 16.7106 6.50022 17.2518 6.54444C17.8139 6.59036 18.3306 6.68893 18.816 6.93622C19.5686 7.31971 20.1805 7.93163 20.564 8.68428C20.8113 9.16962 20.9099 9.68632 20.9558 10.2484C21 10.7896 21 11.454 21 12.2589V16.7416C21 17.5465 21 18.2109 20.9558 18.7521C20.9099 19.3142 20.8113 19.8309 20.564 20.3162C20.1805 21.0689 19.5686 21.6808 18.816 22.0643C18.3306 22.3116 17.8139 22.4101 17.2518 22.4561C16.7106 22.5003 16.0463 22.5003 15.2413 22.5002H8.75873C7.95374 22.5003 7.28938 22.5003 6.74817 22.4561C6.18608 22.4101 5.66937 22.3116 5.18404 22.0643C4.43139 21.6808 3.81947 21.0689 3.43597 20.3162C3.18868 19.8309 3.09012 19.3142 3.04419 18.7521C2.99998 18.2109 2.99999 17.5465 3 16.7415V12.2589C2.99999 11.454 2.99998 10.7896 3.04419 10.2484C3.09012 9.68632 3.18868 9.16962 3.43597 8.68428C3.81947 7.93163 4.43139 7.31971 5.18404 6.93622C5.66937 6.68893 6.18608 6.59036 6.74817 6.54444C7.28937 6.50022 7.95373 6.50023 8.7587 6.50024ZM6.91104 8.5378C6.47262 8.57362 6.24842 8.63854 6.09202 8.71823C5.7157 8.90998 5.40973 9.21594 5.21799 9.59226C5.1383 9.74866 5.07337 9.97287 5.03755 10.4113C5.00078 10.8614 5 11.4437 5 12.3002V16.7002C5 17.5568 5.00078 18.1391 5.03755 18.5892C5.07337 19.0276 5.1383 19.2518 5.21799 19.4082C5.40973 19.7845 5.7157 20.0905 6.09202 20.2823C6.24842 20.3619 6.47262 20.4269 6.91104 20.4627C7.36113 20.4995 7.94342 20.5002 8.8 20.5002H15.2C16.0566 20.5002 16.6389 20.4995 17.089 20.4627C17.5274 20.4269 17.7516 20.3619 17.908 20.2823C18.2843 20.0905 18.5903 19.7845 18.782 19.4082C18.8617 19.2518 18.9266 19.0276 18.9624 18.5892C18.9992 18.1391 19 17.5568 19 16.7002V12.3002C19 11.4437 18.9992 10.8614 18.9624 10.4113C18.9266 9.97287 18.8617 9.74866 18.782 9.59226C18.5903 9.21594 18.2843 8.90998 17.908 8.71823C17.7516 8.63854 17.5274 8.57362 17.089 8.5378C16.6389 8.50102 16.0566 8.50024 15.2 8.50024H8.8C7.94342 8.50024 7.36113 8.50102 6.91104 8.5378Z" fill="#9E9E9E"/>
<path fill-rule="evenodd" clip-rule="evenodd" d="M10 3.93024L10 4.50031L8 4.50018L8.00009 3.09825L8.27826 2.80814C8.52078 2.55522 8.88254 2.1874 9.51489 1.91303C10.1265 1.64769 10.9151 1.50024 12 1.50024C13.085 1.50024 13.8736 1.6477 14.4852 1.91305C15.1175 2.18742 15.4793 2.55525 15.7218 2.80812L16 3.09826V4.50024H14V3.93023C13.9115 3.86116 13.8144 3.80216 13.6891 3.74779C13.4093 3.62636 12.9151 3.50024 12 3.50024C11.085 3.50024 10.5908 3.62635 10.3109 3.74778C10.1856 3.80216 10.0886 3.86117 10 3.93024Z" fill="#9E9E9E"/>
<path fill-rule="evenodd" clip-rule="evenodd" d="M12.0005 18.5002C10.8097 18.5009 9.59337 18.1953 8.4 17.3002L9.6 15.7002C10.4066 16.3052 11.1886 16.5007 11.9995 16.5002C12.8103 16.4998 13.594 16.3047 14.4 15.7002L15.6 17.3002C14.406 18.1958 13.1879 18.4996 12.0005 18.5002Z" fill="#9E9E9E"/>
<path d="M7 13.0002C7 12.1718 7.67157 11.5002 8.5 11.5002C9.32843 11.5002 10 12.1718 10 13.0002C10 13.8287 9.32843 14.5002 8.5 14.5002C7.67157 14.5002 7 13.8287 7 13.0002Z" fill="#9E9E9E"/>
<path d="M14 13.0002C14 12.1718 14.6716 11.5002 15.5 11.5002C16.3284 11.5002 17 12.1718 17 13.0002C17 13.8287 16.3284 14.5002 15.5 14.5002C14.6716 14.5002 14 13.8287 14 13.0002Z" fill="#9E9E9E"/>
<path fill-rule="evenodd" clip-rule="evenodd" d="M8.7587 6.50024H15.2413C16.0463 6.50023 16.7106 6.50022 17.2518 6.54444C17.8139 6.59036 18.3306 6.68893 18.816 6.93622C19.5686 7.31971 20.1805 7.93163 20.564 8.68428C20.8113 9.16962 20.9099 9.68632 20.9558 10.2484C21 10.7896 21 11.454 21 12.2589V16.7416C21 17.5465 21 18.2109 20.9558 18.7521C20.9099 19.3142 20.8113 19.8309 20.564 20.3162C20.1805 21.0689 19.5686 21.6808 18.816 22.0643C18.3306 22.3116 17.8139 22.4101 17.2518 22.4561C16.7106 22.5003 16.0463 22.5003 15.2413 22.5002H8.75873C7.95374 22.5003 7.28938 22.5003 6.74817 22.4561C6.18608 22.4101 5.66937 22.3116 5.18404 22.0643C4.43139 21.6808 3.81947 21.0689 3.43597 20.3162C3.18868 19.8309 3.09012 19.3142 3.04419 18.7521C2.99998 18.2109 2.99999 17.5465 3 16.7415V12.2589C2.99999 11.454 2.99998 10.7896 3.04419 10.2484C3.09012 9.68632 3.18868 9.16962 3.43597 8.68428C3.81947 7.93163 4.43139 7.31971 5.18404 6.93622C5.66937 6.68893 6.18608 6.59036 6.74817 6.54444C7.28937 6.50022 7.95373 6.50023 8.7587 6.50024ZM6.91104 8.5378C6.47262 8.57362 6.24842 8.63854 6.09202 8.71823C5.7157 8.90998 5.40973 9.21594 5.21799 9.59226C5.1383 9.74866 5.07337 9.97287 5.03755 10.4113C5.00078 10.8614 5 11.4437 5 12.3002V16.7002C5 17.5568 5.00078 18.1391 5.03755 18.5892C5.07337 19.0276 5.1383 19.2518 5.21799 19.4082C5.40973 19.7845 5.7157 20.0905 6.09202 20.2823C6.24842 20.3619 6.47262 20.4269 6.91104 20.4627C7.36113 20.4995 7.94342 20.5002 8.8 20.5002H15.2C16.0566 20.5002 16.6389 20.4995 17.089 20.4627C17.5274 20.4269 17.7516 20.3619 17.908 20.2823C18.2843 20.0905 18.5903 19.7845 18.782 19.4082C18.8617 19.2518 18.9266 19.0276 18.9624 18.5892C18.9992 18.1391 19 17.5568 19 16.7002V12.3002C19 11.4437 18.9992 10.8614 18.9624 10.4113C18.9266 9.97287 18.8617 9.74866 18.782 9.59226C18.5903 9.21594 18.2843 8.90998 17.908 8.71823C17.7516 8.63854 17.5274 8.57362 17.089 8.5378C16.6389 8.50102 16.0566 8.50024 15.2 8.50024H8.8C7.94342 8.50024 7.36113 8.50102 6.91104 8.5378Z" fill="#9E9E9E"/>
<path fill-rule="evenodd" clip-rule="evenodd" d="M10 3.93024L10 4.50031L8 4.50018L8.00009 3.09825L8.27826 2.80814C8.52078 2.55522 8.88254 2.1874 9.51489 1.91303C10.1265 1.64769 10.9151 1.50024 12 1.50024C13.085 1.50024 13.8736 1.6477 14.4852 1.91305C15.1175 2.18742 15.4793 2.55525 15.7218 2.80812L16 3.09826V4.50024H14V3.93023C13.9115 3.86116 13.8144 3.80216 13.6891 3.74779C13.4093 3.62636 12.9151 3.50024 12 3.50024C11.085 3.50024 10.5908 3.62635 10.3109 3.74778C10.1856 3.80216 10.0886 3.86117 10 3.93024Z" fill="#9E9E9E"/>
<path fill-rule="evenodd" clip-rule="evenodd" d="M12.0005 18.5002C10.8097 18.5009 9.59337 18.1953 8.4 17.3002L9.6 15.7002C10.4066 16.3052 11.1886 16.5007 11.9995 16.5002C12.8103 16.4998 13.594 16.3047 14.4 15.7002L15.6 17.3002C14.406 18.1958 13.1879 18.4996 12.0005 18.5002Z" fill="#9E9E9E"/>
<path d="M7 13.0002C7 12.1718 7.67157 11.5002 8.5 11.5002C9.32843 11.5002 10 12.1718 10 13.0002C10 13.8287 9.32843 14.5002 8.5 14.5002C7.67157 14.5002 7 13.8287 7 13.0002Z" fill="#9E9E9E"/>
<path d="M14 13.0002C14 12.1718 14.6716 11.5002 15.5 11.5002C16.3284 11.5002 17 12.1718 17 13.0002C17 13.8287 16.3284 14.5002 15.5 14.5002C14.6716 14.5002 14 13.8287 14 13.0002Z" fill="#9E9E9E"/>
</svg>
