<svg width="49" height="48" viewBox="0 0 49 48" fill="none" xmlns="http://www.w3.org/2000/svg">
<path d="M38.334 37.7485H10.334V39.7485C10.334 40.8531 9.43854 41.7485 8.33398 41.7485H6.33398C5.22942 41.7485 4.33398 40.8531 4.33398 39.7485V21.7485L9.36066 8.34404C9.94612 6.78284 11.4386 5.74854 13.106 5.74854H35.562C37.2294 5.74854 38.7218 6.78284 39.3074 8.34404L44.334 21.7485V39.7485C44.334 40.8531 43.4386 41.7485 42.334 41.7485H40.334C39.2294 41.7485 38.334 40.8531 38.334 39.7485V37.7485ZM8.60598 21.7485H40.062L35.562 9.74854H13.106L8.60598 21.7485ZM13.334 31.7485C14.9908 31.7485 16.334 30.4053 16.334 28.7485C16.334 27.0917 14.9908 25.7485 13.334 25.7485C11.6771 25.7485 10.334 27.0917 10.334 28.7485C10.334 30.4053 11.6771 31.7485 13.334 31.7485ZM35.334 31.7485C36.9908 31.7485 38.334 30.4053 38.334 28.7485C38.334 27.0917 36.9908 25.7485 35.334 25.7485C33.6772 25.7485 32.334 27.0917 32.334 28.7485C32.334 30.4053 33.6772 31.7485 35.334 31.7485Z" fill="url(#paint0_linear_6089_14313)"/>
<defs>
<linearGradient id="paint0_linear_6089_14313" x1="44.334" y1="41.7485" x2="-2.41211" y2="26.689" gradientUnits="userSpaceOnUse">
<stop stop-color="#246BFD"/>
<stop offset="1" stop-color="#5089FD"/>
</linearGradient>
</defs>
</svg>
