<svg width="21" height="21" viewBox="0 0 21 21" fill="none" xmlns="http://www.w3.org/2000/svg">
<path opacity="0.4" fill-rule="evenodd" clip-rule="evenodd" d="M5.42383 17.6573C5.42383 16.9573 5.99049 16.3906 6.69049 16.3906C7.38216 16.3906 7.94883 16.9573 7.94883 17.6573C7.94883 18.349 7.38216 18.9156 6.69049 18.9156C5.99049 18.9156 5.42383 18.349 5.42383 17.6573ZM14.7988 17.6573C14.7988 16.9573 15.3655 16.3906 16.0655 16.3906C16.7572 16.3906 17.3238 16.9573 17.3238 17.6573C17.3238 18.349 16.7572 18.9156 16.0655 18.9156C15.3655 18.9156 14.7988 18.349 14.7988 17.6573Z" fill="url(#paint0_linear_6222_3497)"/>
<path fill-rule="evenodd" clip-rule="evenodd" d="M17.325 5.79176C17.8333 5.79176 18.1666 5.96676 18.5 6.35009C18.8333 6.73343 18.8916 7.28343 18.8166 7.78259L18.025 13.2493C17.875 14.3001 16.975 15.0743 15.9166 15.0743H6.82497C5.71663 15.0743 4.79997 14.2243 4.7083 13.1251L3.94163 4.04093L2.6833 3.82426C2.34997 3.76593 2.11663 3.44093 2.17497 3.10759C2.2333 2.76593 2.5583 2.54093 2.89997 2.59093L4.88747 2.89093C5.1708 2.94176 5.37913 3.17426 5.40413 3.45759L5.56247 5.32426C5.58747 5.59176 5.80413 5.79176 6.0708 5.79176H17.325ZM12.275 10.1243H14.5833C14.9333 10.1243 15.2083 9.84093 15.2083 9.49926C15.2083 9.14926 14.9333 8.87426 14.5833 8.87426H12.275C11.925 8.87426 11.65 9.14926 11.65 9.49926C11.65 9.84093 11.925 10.1243 12.275 10.1243Z" fill="url(#paint1_linear_6222_3497)"/>
<defs>
<linearGradient id="paint0_linear_6222_3497" x1="17.3238" y1="18.9156" x2="11.9701" y2="11.6" gradientUnits="userSpaceOnUse">
<stop stop-color="#6949FF"/>
<stop offset="1" stop-color="#876DFF"/>
</linearGradient>
<linearGradient id="paint1_linear_6222_3497" x1="18.8457" y1="15.0743" x2="0.134945" y2="7.82965" gradientUnits="userSpaceOnUse">
<stop stop-color="#6949FF"/>
<stop offset="1" stop-color="#876DFF"/>
</linearGradient>
</defs>
</svg>
