<svg width="49" height="48" viewBox="0 0 49 48" fill="none" xmlns="http://www.w3.org/2000/svg">
<path d="M16.3398 26.9395C19.1598 26.9395 21.4199 29.2215 21.4199 32.0615V38.8799C21.4197 41.6997 19.1597 43.999 16.3398 43.999H9.58008C6.78024 43.999 4.50026 41.6997 4.5 38.8799V32.0615C4.5 29.2215 6.78008 26.9395 9.58008 26.9395H16.3398ZM39.4199 26.9395C42.2199 26.9395 44.5 29.2215 44.5 32.0615V38.8799C44.4997 41.6997 42.2198 43.999 39.4199 43.999H32.6602C29.8403 43.999 27.5803 41.6996 27.5801 38.8799V32.0615C27.5801 29.2215 29.8402 26.9395 32.6602 26.9395H39.4199ZM16.3398 4C19.1598 4 21.4199 6.30007 21.4199 9.12207V15.9404C21.4197 18.7802 19.1597 21.0596 16.3398 21.0596H9.58008C6.78022 21.0596 4.50023 18.7802 4.5 15.9404V9.12207C4.5 6.30007 6.78008 4 9.58008 4H16.3398ZM39.4199 4C42.2199 4 44.5 6.30007 44.5 9.12207V15.9404C44.4998 18.7802 42.2198 21.0596 39.4199 21.0596H32.6602C29.8403 21.0595 27.5803 18.7802 27.5801 15.9404V9.12207C27.5801 6.30008 29.8402 4.00002 32.6602 4H39.4199Z" fill="url(#paint0_linear_6089_1782)"/>
<defs>
<linearGradient id="paint0_linear_6089_1782" x1="44.5" y1="43.999" x2="-3.09623" y2="30.1986" gradientUnits="userSpaceOnUse">
<stop stop-color="#FB9400"/>
<stop offset="1" stop-color="#FFAB38"/>
</linearGradient>
</defs>
</svg>
