<svg width="20" height="20" viewBox="0 0 20 20" fill="none" xmlns="http://www.w3.org/2000/svg">
<path d="M10.0068 0C11.6245 1.40905e-05 13.2361 0.399344 14.668 1.1543C19.543 3.72662 21.418 9.7853 18.8477 14.6621C17.0943 17.9877 13.6419 20 9.99512 20C9.2828 20 8.56349 19.9232 7.84766 19.7646C7.44432 19.6748 7.18938 19.2746 7.27832 18.8711C7.36742 18.4678 7.767 18.2155 8.17285 18.3027C11.8969 19.1305 15.742 17.343 17.5234 13.9639C19.7091 9.81818 18.1149 4.66499 13.9697 2.47852C12.7527 1.83635 11.3823 1.49805 10.0059 1.49805H9.99609C5.31024 1.4981 1.49707 5.31157 1.49707 9.99902C1.49537 11.3644 1.82859 12.724 2.45996 13.9316L2.65137 14.3066C2.88649 14.7471 2.93848 15.294 2.78613 15.7891C2.57567 16.344 2.40028 16.8845 2.25586 17.4219C2.81771 17.2527 3.5042 17.0029 4 16.8223L4.20312 16.749C4.58782 16.6055 5.02007 16.8091 5.16113 17.1982C5.30204 17.5867 5.10028 18.0172 4.71191 18.1572L4.51172 18.2305C3.77022 18.4992 2.75545 18.8682 2.07031 19.0215C2.01225 19.0338 1.94976 19.0418 1.89258 19.04C1.43315 19.04 1.15319 18.854 0.999023 18.6973C0.762131 18.4568 0.6489 18.1189 0.662109 17.6943C0.663878 17.6461 0.670267 17.5961 0.681641 17.5479C0.85953 16.7902 1.09105 16.0338 1.37109 15.3018C1.39126 15.2305 1.37924 15.1013 1.32227 14.9932L1.12891 14.6182C0.390142 13.2035 -0.00172043 11.603 0 9.99805C0 4.48518 4.48414 9.99373e-05 9.99512 0H10.0068ZM9.99609 8.80957C10.652 8.80981 11.1846 9.34375 11.1846 9.99902C11.1844 10.6542 10.6519 11.1882 9.99609 11.1885C9.3401 11.1885 8.80678 10.6543 8.80664 9.99902C8.80664 9.3436 9.34002 8.80957 9.99609 8.80957ZM14.3984 8.80957C15.0545 8.80957 15.5879 9.3436 15.5879 9.99902C15.5878 10.6543 15.0544 11.1885 14.3984 11.1885C13.7426 11.1882 13.2101 10.6542 13.21 9.99902C13.21 9.34375 13.7426 8.8098 14.3984 8.80957ZM5.59277 8.80957C6.24863 8.8098 6.7812 9.34291 6.78125 9.99902C6.78125 10.6543 6.24866 11.1873 5.59277 11.1875C4.9367 11.1875 4.40332 10.6544 4.40332 9.99902C4.40337 9.34277 4.93673 8.80957 5.59277 8.80957Z" fill="#9E9E9E"/>
</svg>
