<svg width="21" height="21" viewBox="0 0 21 21" fill="none" xmlns="http://www.w3.org/2000/svg">
<path opacity="0.4" d="M14.116 2.16602H6.89102C4.06602 2.16602 2.16602 4.14935 2.16602 7.09935V13.9077C2.16602 16.8493 4.06602 18.8327 6.89102 18.8327H14.116C16.941 18.8327 18.8327 16.8493 18.8327 13.9077V7.09935C18.8327 4.14935 16.941 2.16602 14.116 2.16602Z" fill="url(#paint0_linear_6222_12312)"/>
<path d="M13.0129 11.9754L11.5304 10.4938L13.0121 9.01208C13.2971 8.72792 13.2971 8.26542 13.0121 7.98125C12.7271 7.69458 12.2663 7.69542 11.9813 7.98042L10.4988 9.46208L9.01628 7.97875C8.73128 7.69375 8.26961 7.69542 7.98461 7.97875C7.70044 8.26375 7.70044 8.72625 7.98461 9.01042L9.46794 10.4938L7.98794 11.9729C7.70294 12.2579 7.70294 12.7204 7.98794 13.0038C8.13044 13.1471 8.31628 13.2179 8.50294 13.2179C8.69044 13.2179 8.87628 13.1471 9.01878 13.0046L10.4988 11.5246L11.9821 13.0071C12.1246 13.1496 12.3104 13.2204 12.4971 13.2204C12.6838 13.2204 12.8704 13.1488 13.0129 13.0071C13.2979 12.7221 13.2979 12.2604 13.0129 11.9754Z" fill="url(#paint1_linear_6222_12312)"/>
<defs>
<linearGradient id="paint0_linear_6222_12312" x1="18.8327" y1="18.8327" x2="-0.999155" y2="13.0826" gradientUnits="userSpaceOnUse">
<stop stop-color="#FF5A5F"/>
<stop offset="1" stop-color="#FF8A9B"/>
</linearGradient>
<linearGradient id="paint1_linear_6222_12312" x1="13.2267" y1="13.2204" x2="6.73556" y2="11.3382" gradientUnits="userSpaceOnUse">
<stop stop-color="#FF5A5F"/>
<stop offset="1" stop-color="#FF8A9B"/>
</linearGradient>
</defs>
</svg>
