<svg width="48" height="49" viewBox="0 0 48 49" fill="none" xmlns="http://www.w3.org/2000/svg">
<path fill-rule="evenodd" clip-rule="evenodd" d="M15.62 4.5H32.382C38.56 4.5 42 8.06 42 14.16V34.82C42 41.02 38.56 44.5 32.382 44.5H15.62C9.54 44.5 6 41.02 6 34.82V14.16C6 8.06 9.54 4.5 15.62 4.5ZM16.16 13.82V13.8H22.138C23 13.8 23.7 14.5 23.7 15.358C23.7 16.24 23 16.94 22.138 16.94H16.16C15.298 16.94 14.6 16.24 14.6 15.38C14.6 14.52 15.298 13.82 16.16 13.82ZM16.16 25.98H31.84C32.7 25.98 33.4 25.28 33.4 24.42C33.4 23.56 32.7 22.858 31.84 22.858H16.16C15.298 22.858 14.6 23.56 14.6 24.42C14.6 25.28 15.298 25.98 16.16 25.98ZM16.16 35.12H31.84C32.638 35.04 33.24 34.358 33.24 33.56C33.24 32.74 32.638 32.06 31.84 31.98H16.16C15.56 31.92 14.98 32.2 14.66 32.72C14.34 33.22 14.34 33.88 14.66 34.4C14.98 34.9 15.56 35.2 16.16 35.12Z" fill="url(#paint0_linear_5925_1227)"/>
<defs>
<linearGradient id="paint0_linear_5925_1227" x1="42" y1="44.5" x2="-1.47736" y2="33.1547" gradientUnits="userSpaceOnUse">
<stop stop-color="#6949FF"/>
<stop offset="1" stop-color="#876DFF"/>
</linearGradient>
</defs>
</svg>
