<svg width="21" height="21" viewBox="0 0 21 21" fill="none" xmlns="http://www.w3.org/2000/svg">
<g clip-path="url(#clip0_5841_16797)">
<path d="M12.4399 0.150391C11.7732 0.150391 11.2732 0.650391 11.2732 1.31706C11.2732 1.98372 11.8288 2.48372 12.4399 2.48372C13.1066 2.48372 13.6066 1.98372 13.6066 1.31706C13.6621 0.650391 13.1066 0.150391 12.4399 0.150391ZM12.4399 6.03928C11.7732 6.03928 11.2732 6.53928 11.2732 7.20595C11.2732 7.87261 11.8288 8.37261 12.4399 8.37261C13.1066 8.37261 13.6066 7.87261 13.6066 7.20595C13.6621 6.53928 13.1066 6.03928 12.4399 6.03928ZM12.4399 11.9282C11.7732 11.9282 11.2732 12.4282 11.2732 13.0948C11.2732 13.7615 11.8288 14.2615 12.4399 14.2615C13.1066 14.2615 13.6066 13.7615 13.6066 13.0948C13.6621 12.4282 13.1066 11.9282 12.4399 11.9282ZM12.4399 17.8171C11.7732 17.8171 11.2732 18.3171 11.2732 18.9837C11.2732 19.6504 11.8288 20.1504 12.4399 20.1504C13.1066 20.1504 13.6066 19.6504 13.6066 18.9837C13.6621 18.3171 13.1066 17.8171 12.4399 17.8171ZM7.32878 0.150391C6.71767 0.150391 6.16211 0.650391 6.16211 1.31706C6.16211 1.98372 6.71767 2.48372 7.32878 2.48372C7.99544 2.48372 8.49544 1.98372 8.49544 1.31706C8.551 0.650391 7.99544 0.150391 7.32878 0.150391ZM7.32878 6.03928C6.66211 6.03928 6.16211 6.53928 6.16211 7.20595C6.16211 7.87261 6.71767 8.37261 7.32878 8.37261C7.99544 8.37261 8.49544 7.87261 8.49544 7.20595C8.551 6.53928 7.99544 6.03928 7.32878 6.03928ZM7.32878 11.9282C6.66211 11.9282 6.16211 12.4282 6.16211 13.0948C6.16211 13.7615 6.71767 14.2615 7.32878 14.2615C7.99544 14.2615 8.49544 13.7615 8.49544 13.0948C8.551 12.4282 7.99544 11.9282 7.32878 11.9282ZM7.32878 17.8171C6.66211 17.8171 6.16211 18.3171 6.16211 18.9837C6.16211 19.6504 6.71767 20.1504 7.32878 20.1504C7.99544 20.1504 8.49544 19.6504 8.49544 18.9837C8.551 18.3171 7.99544 17.8171 7.32878 17.8171Z" fill="#666666"/>
</g>
<defs>
<clipPath id="clip0_5841_16797">
<rect width="20" height="20" fill="white" transform="translate(0.0507812 0.150391)"/>
</clipPath>
</defs>
</svg>
