<svg width="16" height="14" viewBox="0 0 16 14" fill="none" xmlns="http://www.w3.org/2000/svg">
<path d="M6.58625 12.7885C6.51375 12.7179 6.20375 12.4512 5.94875 12.2028C4.345 10.7463 1.72 6.94703 0.91875 4.95848C0.79 4.65648 0.5175 3.89296 0.5 3.48502C0.5 3.09413 0.59 2.72151 0.7725 2.36593C1.0275 1.92267 1.42875 1.5671 1.9025 1.37226C2.23125 1.24683 3.215 1.052 3.2325 1.052C4.30875 0.85716 6.0575 0.75 7.99 0.75C9.83125 0.75 11.5087 0.85716 12.6012 1.01668C12.6187 1.03495 13.8413 1.22979 14.26 1.44289C15.025 1.83378 15.5 2.5973 15.5 3.41439V3.48502C15.4812 4.01717 15.0062 5.13626 14.9887 5.13626C14.1862 7.01766 11.69 10.7293 10.0312 12.221C10.0312 12.221 9.605 12.6411 9.33875 12.8238C8.95625 13.1087 8.4825 13.25 8.00875 13.25C7.48 13.25 6.9875 13.0905 6.58625 12.7885Z" fill="#6949FF"/>
</svg>
