<svg width="30" height="30" viewBox="0 0 30 30" fill="none" xmlns="http://www.w3.org/2000/svg">
<path d="M14.9922 13.5439C16.8315 13.544 18.5084 13.6512 19.6016 13.8135C19.6208 13.8312 20.842 14.0303 21.2607 14.2471C22.0263 14.6439 22.5 15.4205 22.5 16.251V16.3232C22.4819 16.8648 22.0068 18.001 21.9902 18.001C21.1875 19.9141 18.6914 23.6868 17.0322 25.2031C17.0209 25.2145 16.602 25.6334 16.3398 25.8164C15.9571 26.1055 15.4834 26.25 15.0098 26.25C14.481 26.25 13.989 26.0881 13.5869 25.7812C13.5139 25.7089 13.2063 25.4382 12.9502 25.1846C11.3461 23.705 8.72266 19.8422 7.91992 17.8213C7.79188 17.5145 7.51943 16.7392 7.5 16.3232C7.5 15.9264 7.59266 15.5469 7.77441 15.1855C8.02915 14.7343 8.43072 14.3739 8.9043 14.1748C9.23107 14.0483 10.2111 13.8507 10.2344 13.8496C11.3097 13.6519 13.059 13.5439 14.9922 13.5439ZM15.001 3.75C16.0486 3.75023 16.8974 4.59141 16.8975 5.62891L16.4893 10.2529C16.4893 11.0669 15.8228 11.7273 15.001 11.7275C14.1776 11.7275 13.5117 11.067 13.5117 10.2529L13.1035 5.62891C13.1036 4.59127 13.9532 3.75 15.001 3.75Z" fill="url(#paint0_linear_6165_1668)"/>
<defs>
<linearGradient id="paint0_linear_6165_1668" x1="22.5" y1="26.25" x2="3.84778" y2="22.6446" gradientUnits="userSpaceOnUse">
<stop stop-color="#6949FF"/>
<stop offset="1" stop-color="#876DFF"/>
</linearGradient>
</defs>
</svg>
