<svg width="30" height="30" viewBox="0 0 30 30" fill="none" xmlns="http://www.w3.org/2000/svg">
<path d="M14.999 18.2725C15.8224 18.2725 16.4883 18.933 16.4883 19.7471L16.8965 24.3711C16.8964 25.4087 16.0468 26.25 14.999 26.25C13.9514 26.2498 13.1026 25.4086 13.1025 24.3711L13.5107 19.7471C13.5107 18.9331 14.1772 18.2727 14.999 18.2725ZM14.9902 3.75C15.519 3.75 16.011 3.91194 16.4131 4.21875L16.9385 4.70605L17.0498 4.81543C18.6539 6.29496 21.2773 10.1578 22.0801 12.1787L22.1973 12.4834C22.3288 12.8504 22.4854 13.3648 22.5 13.6768C22.5 14.0736 22.4073 14.4531 22.2256 14.8145C21.9709 15.2657 21.5693 15.6261 21.0957 15.8252C20.7689 15.9517 19.7889 16.1493 19.7656 16.1504C18.773 16.3329 17.2066 16.4389 15.4512 16.4541L15.0078 16.4561C13.1685 16.456 11.4916 16.3488 10.3984 16.1865L9.71875 16.0439C9.35879 15.9649 8.9486 15.8613 8.73926 15.7529C7.9737 15.3561 7.5 14.5795 7.5 13.749V13.6768C7.51812 13.1352 7.99325 11.999 8.00977 11.999C8.7776 10.169 11.095 6.63839 12.7471 5.00781L13.2432 4.5332C13.3775 4.40925 13.5363 4.27004 13.6602 4.18359C14.0429 3.89453 14.5166 3.75003 14.9902 3.75Z" fill="url(#paint0_linear_5493_16302)"/>
<defs>
<linearGradient id="paint0_linear_5493_16302" x1="22.5" y1="26.25" x2="3.84778" y2="22.6446" gradientUnits="userSpaceOnUse">
<stop stop-color="#6949FF"/>
<stop offset="1" stop-color="#876DFF"/>
</linearGradient>
</defs>
</svg>
