<svg width="28" height="28" viewBox="0 0 28 28" fill="none" xmlns="http://www.w3.org/2000/svg">
<path d="M14.8359 2.33398C15.718 2.33398 16.5168 2.82381 16.958 3.54688C17.1726 3.89688 17.316 4.32918 17.2803 4.78418C17.2565 5.13411 17.364 5.48394 17.5547 5.81055C18.1627 6.80215 19.5094 7.17508 20.5586 6.61523C21.7388 5.93864 23.2295 6.34723 23.9092 7.50195L24.708 8.87891C25.3995 10.0338 25.0183 11.5156 23.8262 12.1807C22.8127 12.7757 22.4544 14.0943 23.0625 15.0977C23.2532 15.4125 23.4682 15.6804 23.8018 15.8438C24.219 16.0654 24.541 16.4157 24.7676 16.7656C25.2087 17.4889 25.1733 18.3756 24.7441 19.1572L23.9092 20.5576C23.468 21.3041 22.6452 21.7705 21.7988 21.7705C21.3816 21.7705 20.9166 21.6542 20.5352 21.4209C20.2252 21.2226 19.8677 21.1524 19.4863 21.1523C18.3061 21.1523 17.3162 22.1205 17.2803 23.2754C17.2803 24.617 16.1835 25.6669 14.8125 25.667H13.1904C11.8075 25.6668 10.7109 24.6169 10.7109 23.2754C10.6869 22.1205 9.69687 21.1523 8.5166 21.1523C8.12331 21.1524 7.76574 21.2226 7.46777 21.4209C7.0863 21.6542 6.60941 21.7705 6.2041 21.7705C5.3458 21.7705 4.52323 21.3041 4.08203 20.5576L3.25879 19.1572C2.81774 18.3989 2.79424 17.4889 3.23535 16.7656C3.42613 16.4157 3.78411 16.0654 4.18945 15.8438C4.523 15.6804 4.73785 15.4125 4.94043 15.0977C5.53657 14.0943 5.17848 12.7757 4.16504 12.1807C2.98475 11.5156 2.60362 10.0339 3.2832 8.87891L4.08203 7.50195C4.77366 6.34726 6.25219 5.93865 7.44434 6.61523C8.48161 7.17514 9.82848 6.80218 10.4365 5.81055C10.6272 5.48396 10.7347 5.13409 10.7109 4.78418C10.6871 4.32918 10.8184 3.89688 11.0449 3.54688C11.4861 2.82379 12.2851 2.35731 13.1553 2.33398H14.8359ZM14.0137 10.7109C12.1418 10.7109 10.627 12.181 10.627 14.0127C10.6272 15.8442 12.1419 17.3027 14.0137 17.3027C15.8853 17.3026 17.3631 15.8441 17.3633 14.0127C17.3633 12.1811 15.8854 10.7111 14.0137 10.7109Z" fill="url(#paint0_linear_5470_22385)"/>
<defs>
<linearGradient id="paint0_linear_5470_22385" x1="25.0826" y1="25.667" x2="-1.49455" y2="18.3464" gradientUnits="userSpaceOnUse">
<stop stop-color="#6949FF"/>
<stop offset="1" stop-color="#876DFF"/>
</linearGradient>
</defs>
</svg>
