<svg width="28" height="28" viewBox="0 0 28 28" fill="none" xmlns="http://www.w3.org/2000/svg">
<path d="M21.6553 16.3564C23.8718 16.3564 25.6668 18.1212 25.667 20.2988C25.667 22.4753 23.8719 24.2412 21.6553 24.2412C19.4399 24.2412 17.6436 22.4753 17.6436 20.2988C17.6437 18.1212 19.44 16.3565 21.6553 16.3564ZM11.7646 18.6172C12.7355 18.6173 13.5234 19.3919 13.5234 20.3457C13.5234 21.2983 12.7355 22.0741 11.7646 22.0742H4.09277C3.12198 22.0741 2.33398 21.2982 2.33398 20.3457C2.33405 19.392 3.12202 18.6173 4.09277 18.6172H11.7646ZM6.3457 3.5C8.56227 3.5 10.3583 5.26501 10.3584 7.44141C10.3584 9.61919 8.56236 11.3848 6.3457 11.3848C4.13048 11.3846 2.33398 9.61909 2.33398 7.44141C2.33412 5.26511 4.13057 3.50016 6.3457 3.5ZM23.9092 5.71484C24.8787 5.71484 25.6669 6.4889 25.667 7.44141C25.667 8.3953 24.8788 9.16992 23.9092 9.16992H16.2383C15.2674 9.16992 14.4795 8.3953 14.4795 7.44141C14.4796 6.4889 15.2674 5.71484 16.2383 5.71484H23.9092Z" fill="#212121"/>
</svg>
