<svg width="22" height="24" viewBox="0 0 22 24" fill="none" xmlns="http://www.w3.org/2000/svg">
<path fill-rule="evenodd" clip-rule="evenodd" d="M16.146 1.22973L16.1472 2.10429C19.3609 2.35617 21.4839 4.54607 21.4873 7.90439L21.5 17.7345C21.5046 21.396 19.2043 23.6488 15.5171 23.6547L6.51054 23.6663C2.8464 23.671 0.517293 21.3645 0.512685 17.6925L0.500014 7.97785C0.495407 4.59738 2.54345 2.4133 5.75721 2.11829L5.75605 1.24372C5.7549 0.730647 6.13502 0.344674 6.64185 0.344674C7.14868 0.343507 7.5288 0.728315 7.52995 1.24139L7.53111 2.05765L14.3733 2.04832L14.3721 1.23206C14.371 0.718986 14.7511 0.334179 15.2579 0.333013C15.7532 0.331847 16.1449 0.716654 16.146 1.22973ZM2.27507 8.33817L19.7146 8.31485V7.90672C19.665 5.39964 18.4072 4.0843 16.1495 3.8884L16.1506 4.78628C16.1506 5.2877 15.7602 5.68533 15.2648 5.68533C14.758 5.6865 14.3767 5.29003 14.3767 4.78861L14.3756 3.84409L7.53341 3.85342L7.53456 4.79678C7.53456 5.29936 7.15559 5.69583 6.64876 5.69583C6.14194 5.69699 5.76066 5.30169 5.76066 4.79911L5.75951 3.90123C3.51334 4.12628 2.27046 5.44629 2.27391 7.97552L2.27507 8.33817ZM14.7799 13.638V13.6508C14.7914 14.1872 15.2291 14.5942 15.7602 14.5825C16.2785 14.5697 16.692 14.1254 16.6805 13.589C16.6563 13.076 16.2405 12.6573 15.7233 12.6585C15.1934 12.6702 14.7787 13.1016 14.7799 13.638ZM15.7314 18.8737C15.2015 18.8621 14.7741 18.4201 14.773 17.8837C14.7615 17.3473 15.1865 16.903 15.7164 16.8902H15.7279C16.2693 16.8902 16.7082 17.3322 16.7082 17.8802C16.7093 18.4283 16.2716 18.8726 15.7314 18.8737ZM10.0341 13.6567C10.0572 14.1931 10.4961 14.6117 11.0259 14.5884C11.5443 14.5639 11.9578 14.1208 11.9348 13.5844C11.9221 13.0596 11.4959 12.6515 10.9775 12.6527C10.4477 12.676 10.033 13.1203 10.0341 13.6567ZM11.0305 18.8213C10.5007 18.8446 10.0629 18.426 10.0388 17.8896C10.0388 17.3532 10.4523 16.91 10.9821 16.8856C11.5005 16.8844 11.9278 17.2925 11.9394 17.8161C11.9636 18.3537 11.5489 18.7968 11.0305 18.8213ZM5.28839 13.6975C5.31143 14.2339 5.7503 14.6537 6.28016 14.6292C6.79851 14.6059 7.21204 14.1616 7.18785 13.6252C7.17633 13.1005 6.75013 12.6923 6.23063 12.6935C5.70077 12.7168 5.28724 13.1611 5.28839 13.6975ZM6.28477 18.8271C5.7549 18.8516 5.31719 18.4318 5.293 17.8954C5.29185 17.359 5.70652 16.9147 6.23639 16.8914C6.75474 16.8902 7.18209 17.2983 7.1936 17.8231C7.21779 18.3595 6.80427 18.8038 6.28477 18.8271Z" fill="#6949FF"/>
</svg>
