<svg width="40" height="41" viewBox="0 0 40 41" fill="none" xmlns="http://www.w3.org/2000/svg">
<path d="M28.668 0.5C35.4462 0.500156 39.9998 5.25615 40 12.333V28.667C39.9998 35.7438 35.4462 40.4998 28.666 40.5H11.332C4.55378 40.4998 0.000186546 35.7439 0 28.667V12.333C0.00018613 5.25615 4.55378 0.500156 11.332 0.5H28.668ZM30.874 21.6006C28.7306 20.2634 27.0749 22.1401 26.6279 22.7412C26.1976 23.3211 25.8276 23.9618 25.4375 24.6016C24.4843 26.1803 23.392 28.0007 21.502 29.0596C18.7549 30.5806 16.6683 29.1788 15.168 28.1592C14.6053 27.7797 14.0583 27.421 13.5137 27.1816C12.1703 26.6017 10.9608 27.2617 9.16699 29.54C8.22592 30.7308 7.29274 31.9116 6.34766 33.0879C5.78252 33.7917 5.91746 34.878 6.67969 35.3486C7.89631 36.0976 9.38063 36.5 11.0576 36.5H27.9131C28.8641 36.5 29.8177 36.3703 30.7266 36.0732C32.7737 35.4044 34.3994 33.8722 35.248 31.8496C35.9638 30.149 36.3112 28.0852 35.6416 26.3682C35.4184 25.7986 35.0846 25.2681 34.6162 24.8018C33.3876 23.5822 32.2392 22.4426 30.874 21.6006ZM12.998 8.5C10.2408 8.5 8.00007 10.7435 8 13.5C8 16.2565 10.2408 18.5 12.998 18.5C15.7531 18.4997 17.9961 16.2564 17.9961 13.5C17.996 10.7437 15.7531 8.50027 12.998 8.5Z" fill="url(#paint0_linear_5675_11356)"/>
<defs>
<linearGradient id="paint0_linear_5675_11356" x1="40" y1="40.5" x2="-7.59641" y2="26.6999" gradientUnits="userSpaceOnUse">
<stop stop-color="#6949FF"/>
<stop offset="1" stop-color="#876DFF"/>
</linearGradient>
</defs>
</svg>
