<svg width="21" height="21" viewBox="0 0 21 21" fill="none" xmlns="http://www.w3.org/2000/svg">
<path opacity="0.4" d="M18.8327 10.4993C18.8327 15.1027 15.1018 18.8327 10.4993 18.8327C5.89685 18.8327 2.16602 15.1027 2.16602 10.4993C2.16602 5.89768 5.89685 2.16602 10.4993 2.16602C15.1018 2.16602 18.8327 5.89768 18.8327 10.4993Z" fill="#212121"/>
<path fill-rule="evenodd" clip-rule="evenodd" d="M11.2259 11.0258C11.2259 11.4274 10.8984 11.7549 10.4967 11.7549C10.0951 11.7549 9.76758 11.4274 9.76758 11.0258V7.34245C9.76758 6.94078 10.0951 6.61328 10.4967 6.61328C10.8984 6.61328 11.2259 6.94078 11.2259 7.34245V11.0258ZM9.77174 13.6698C9.77174 13.2681 10.0976 12.9406 10.4967 12.9406C10.9076 12.9406 11.2342 13.2681 11.2342 13.6698C11.2342 14.0714 10.9076 14.3989 10.5051 14.3989C10.1009 14.3989 9.77174 14.0714 9.77174 13.6698Z" fill="#212121"/>
</svg>
