<svg width="24" height="24" viewBox="0 0 24 24" fill="none" xmlns="http://www.w3.org/2000/svg">
<path d="M20.9461 8.30447C20.936 7.54709 20.7942 6.79724 20.5271 6.08847C20.2954 5.49062 19.9416 4.94767 19.4883 4.4943C19.0349 4.04093 18.4919 3.68712 17.8941 3.45547C17.1944 3.19283 16.4553 3.05081 15.7081 3.03547C14.7461 2.99247 14.4411 2.98047 11.9991 2.98047C9.55709 2.98047 9.24409 2.98047 8.28909 3.03547C7.54225 3.05092 6.80344 3.19294 6.10409 3.45547C5.50615 3.68696 4.96311 4.04071 4.50973 4.4941C4.05634 4.94749 3.70258 5.49053 3.47109 6.08847C3.20792 6.7876 3.06622 7.52658 3.05209 8.27347C3.00909 9.23647 2.99609 9.54147 2.99609 11.9835C2.99609 14.4255 2.99609 14.7375 3.05209 15.6935C3.06709 16.4415 3.20809 17.1795 3.47109 17.8805C3.70297 18.4782 4.05699 19.021 4.51053 19.4742C4.96407 19.9274 5.50716 20.281 6.10509 20.5125C6.80253 20.7857 7.54147 20.9378 8.29009 20.9625C9.25309 21.0055 9.55809 21.0185 12.0001 21.0185C14.4421 21.0185 14.7551 21.0185 15.7101 20.9625C16.4572 20.9478 17.1965 20.8061 17.8961 20.5435C18.4938 20.3116 19.0366 19.9576 19.4899 19.5043C19.9433 19.051 20.2972 18.5082 20.5291 17.9105C20.7921 17.2105 20.9331 16.4725 20.9481 15.7235C20.9911 14.7615 21.0041 14.4565 21.0041 12.0135C21.0021 9.57147 21.0021 9.26147 20.9461 8.30447ZM11.9931 16.6015C9.43909 16.6015 7.37009 14.5325 7.37009 11.9785C7.37009 9.42447 9.43909 7.35547 11.9931 7.35547C13.2192 7.35547 14.3951 7.84253 15.262 8.70951C16.129 9.5765 16.6161 10.7524 16.6161 11.9785C16.6161 13.2046 16.129 14.3804 15.262 15.2474C14.3951 16.1144 13.2192 16.6015 11.9931 16.6015ZM16.8001 8.26247C16.6585 8.2626 16.5183 8.23481 16.3874 8.18068C16.2566 8.12655 16.1377 8.04715 16.0375 7.94702C15.9374 7.8469 15.858 7.72801 15.8039 7.59716C15.7498 7.46631 15.722 7.32607 15.7221 7.18447C15.7221 7.04297 15.75 6.90286 15.8041 6.77213C15.8583 6.6414 15.9376 6.52262 16.0377 6.42256C16.1377 6.32251 16.2565 6.24314 16.3873 6.18899C16.518 6.13484 16.6581 6.10697 16.7996 6.10697C16.9411 6.10697 17.0812 6.13484 17.2119 6.18899C17.3427 6.24314 17.4614 6.32251 17.5615 6.42256C17.6616 6.52262 17.7409 6.6414 17.7951 6.77213C17.8492 6.90286 17.8771 7.04297 17.8771 7.18447C17.8771 7.78047 17.3951 8.26247 16.8001 8.26247Z" fill="#6949FF"/>
<path d="M11.9932 14.9826C13.6517 14.9826 14.9962 13.6381 14.9962 11.9796C14.9962 10.3211 13.6517 8.97656 11.9932 8.97656C10.3347 8.97656 8.99023 10.3211 8.99023 11.9796C8.99023 13.6381 10.3347 14.9826 11.9932 14.9826Z" fill="#6949FF"/>
</svg>
