<svg width="49" height="48" viewBox="0 0 49 48" fill="none" xmlns="http://www.w3.org/2000/svg">
<g clip-path="url(#clip0_6089_17823)">
<g clip-path="url(#clip1_6089_17823)">
<path fill-rule="evenodd" clip-rule="evenodd" d="M4.44008 4.13644H8.07945V9.14319C8.07945 10.535 8.70758 11.7654 9.72102 12.6208C10.577 13.3448 11.716 13.7933 12.9329 13.7933C14.1507 13.7933 15.2898 13.3448 16.1466 12.6208C17.1591 11.7654 17.7873 10.535 17.7873 9.14319V4.13644H25.1363V9.14319C25.1363 10.535 25.7635 11.7654 26.777 12.6208C27.6329 13.3448 28.7729 13.7933 29.9898 13.7933C31.2066 13.7933 32.3466 13.3448 33.2026 12.6208C34.216 11.7654 34.8441 10.535 34.8441 9.14319V4.13644H38.6429C39.7266 4.13644 40.7129 4.59556 41.4291 5.33304C42.1454 6.06858 42.5898 7.08636 42.5898 8.20563V22.1472C42.0391 21.928 41.4762 21.7431 40.9041 21.5934V15.9149H2.17977V39.579C2.17977 41.3371 3.5757 42.7783 5.28289 42.7783H24.1632C24.4464 43.3788 24.7684 43.9591 25.127 44.5152H4.44008C3.3582 44.5152 2.37195 44.058 1.6557 43.3205C0.938516 42.5792 0.494141 41.5633 0.494141 40.4479V8.20467C0.494141 7.08733 0.938516 6.07148 1.65289 5.334C2.37008 4.59459 3.35727 4.13644 4.44008 4.13644ZM34.8329 45.7649C35.3363 45.9031 35.6354 46.4367 35.5013 46.9557C35.3663 47.4748 34.8488 47.7831 34.3463 47.6449C33.9088 47.5243 33.4786 47.3768 33.0582 47.2032C30.647 46.2086 28.7157 44.4166 27.4801 42.2109C26.0307 39.6263 25.5395 36.4715 26.3466 33.3631C27.1538 30.2556 29.1095 27.7783 31.6173 26.285C34.1232 24.7907 37.1841 24.2833 40.1991 25.1174C41.2529 25.4083 42.2326 25.8433 43.1223 26.3962C43.8321 26.8385 44.4924 27.3604 45.091 27.9523L45.0395 27.4371C44.987 26.9046 45.362 26.4281 45.8785 26.3739C46.3951 26.3198 46.8563 26.7074 46.9098 27.24L47.1798 29.9289C47.1891 30.0275 47.1845 30.1251 47.1657 30.2179C47.1263 30.7002 46.741 31.0868 46.2601 31.1023L43.6398 31.198C43.1223 31.2144 42.6882 30.794 42.6723 30.2604C42.6563 29.7259 43.0632 29.2794 43.5807 29.263L43.6857 29.2591C43.2188 28.8116 42.7041 28.4105 42.1482 28.0635C41.4057 27.6015 40.5891 27.239 39.7116 26.9964C37.1973 26.3024 34.6482 26.7238 32.5623 27.9658C30.4726 29.2069 28.8441 31.2724 28.171 33.8647C27.497 36.457 27.9048 39.0851 29.1104 41.2376C29.7095 42.3095 30.5063 43.2645 31.4663 44.0377C32.4216 44.809 33.661 45.4431 34.8329 45.7649ZM36.8363 30.2575H38.7198L38.6748 31.4812C39.467 31.5324 40.1588 31.6136 40.7523 31.7267L40.322 34.0957H38.0973C37.7513 34.0957 37.5207 34.1518 37.4073 34.2639C37.2938 34.376 37.232 34.5906 37.2216 34.9057L38.1563 35.013C39.2935 35.1454 40.0773 35.446 40.5076 35.9157C40.937 36.3845 41.1526 36.9906 41.1526 37.7348C41.1526 38.479 41.0776 39.0735 40.9295 39.5162C40.7813 39.9588 40.5685 40.2981 40.292 40.533C39.7876 40.9302 39.1257 41.1603 38.3054 41.2212L38.2604 42.7647H36.347L36.407 41.2212C35.4676 41.1506 34.6716 41.0269 34.0191 40.8539L34.4485 38.423C35.2698 38.6472 36.1295 38.7593 37.0295 38.7593C37.4054 38.7593 37.756 38.739 38.0823 38.6985V38.0557L37.1626 37.9484C35.9757 37.8266 35.1854 37.47 34.7898 36.8784C34.4438 36.3594 34.2713 35.6809 34.2713 34.8448C34.2713 33.7449 34.4907 32.9446 34.9313 32.4449C35.371 31.9451 35.9907 31.6387 36.7923 31.5276L36.8363 30.2575ZM37.8479 46.0936C36.5382 46.2066 36.7754 48.1397 37.9491 48.0392C38.6176 48.0064 39.3451 47.8923 39.9948 47.7251C41.2004 47.4139 40.7457 45.5223 39.5345 45.8355C38.9766 45.9756 38.4207 46.0578 37.8479 46.0936ZM42.647 44.3866C41.6288 45.1222 42.7107 46.7189 43.7298 45.9834C44.282 45.5919 44.8407 45.1019 45.3066 44.606C46.1626 43.7236 44.8557 42.3163 43.9501 43.249C43.5751 43.654 43.0951 44.0696 42.647 44.3866ZM45.8738 40.3242C45.3676 41.4715 47.0766 42.3037 47.6016 41.1129C47.8904 40.4392 48.0835 39.8139 48.2635 39.1034C48.5607 37.8807 46.7335 37.381 46.426 38.6501C46.2629 39.2523 46.1213 39.7481 45.8738 40.3242ZM46.6126 35.1328C46.8104 36.3613 48.4941 36.1941 48.4941 34.9869L48.4866 34.8815C48.3929 34.1644 48.2513 33.5032 48.0395 32.8112C47.6373 31.5672 45.8551 32.2138 46.2404 33.4066C46.4129 33.9698 46.5374 34.5474 46.6126 35.1328ZM18.9995 30.9013H23.6326C23.0316 32.5502 22.7007 34.3364 22.7007 36.2018C22.7007 36.5488 22.7138 36.8939 22.7363 37.2351H18.9995C18.6048 37.2351 18.2785 36.9016 18.2785 36.4937V31.6436C18.2785 31.2357 18.6029 30.9013 18.9995 30.9013ZM18.9995 20.5891H24.6526C25.0491 20.5891 25.3726 20.9245 25.3726 21.3314V26.1806C25.3726 26.5866 25.0473 26.9229 24.6526 26.9229H18.9995C18.6048 26.9229 18.2785 26.5885 18.2785 26.1806V21.3314C18.2785 20.9226 18.6029 20.5891 18.9995 20.5891ZM7.59664 20.5891H13.2498C13.6463 20.5891 13.9707 20.9245 13.9707 21.3314V26.1806C13.9707 26.5866 13.6445 26.9229 13.2498 26.9229H7.59664C7.20195 26.9229 6.87664 26.5885 6.87664 26.1806V21.3314C6.87664 20.9226 7.20102 20.5891 7.59664 20.5891ZM30.4013 20.5891H36.0554C36.3901 20.5891 36.6723 20.8288 36.7529 21.1478C34.1663 21.2483 31.7532 22.0418 29.6813 23.3525V21.3314C29.6813 20.9226 30.0057 20.5891 30.4013 20.5891ZM7.59664 30.9013H13.2498C13.6463 30.9013 13.9707 31.2376 13.9707 31.6436V36.4937C13.9707 36.8997 13.6445 37.2351 13.2498 37.2351H7.59664C7.20195 37.2351 6.87664 36.9016 6.87664 36.4937V31.6436C6.87664 31.2357 7.20102 30.9013 7.59664 30.9013ZM28.0848 1.65337C28.0848 0.765106 28.937 0.0430908 29.9898 0.0430908C31.0435 0.0430908 31.8957 0.765106 31.8957 1.65337V9.14319C31.8957 10.0315 31.0435 10.7535 29.9898 10.7535C28.937 10.7535 28.0848 10.0315 28.0848 9.14319V1.65337ZM11.0279 1.65337C11.0279 0.765106 11.8801 0.0430908 12.9329 0.0430908C13.9866 0.0430908 14.8388 0.765106 14.8388 1.65337V9.14319C14.8388 10.0315 13.9866 10.7535 12.9329 10.7535C11.8801 10.7535 11.0279 10.0315 11.0279 9.14319V1.65337Z" fill="url(#paint0_linear_6089_17823)"/>
</g>
</g>
<defs>
<linearGradient id="paint0_linear_6089_17823" x1="48.4941" y1="48.043" x2="-8.62154" y2="31.4828" gradientUnits="userSpaceOnUse">
<stop stop-color="#FF5A5F"/>
<stop offset="1" stop-color="#FF8A9B"/>
</linearGradient>
<clipPath id="clip0_6089_17823">
<rect width="48" height="48" fill="white" transform="translate(0.5)"/>
</clipPath>
<clipPath id="clip1_6089_17823">
<rect width="48" height="48" fill="white" transform="translate(0.494141 0.0430908)"/>
</clipPath>
</defs>
</svg>
