<svg width="49" height="48" viewBox="0 0 49 48" fill="none" xmlns="http://www.w3.org/2000/svg">
<path d="M25.9346 4.00018C27.447 4.00023 28.816 4.84035 29.5723 6.08026C29.9402 6.68026 30.1853 7.42038 30.124 8.20038C30.0832 8.8003 30.2677 9.40021 30.5947 9.96014C31.6371 11.6601 33.9465 12.3 35.7451 11.34C37.7686 10.18 40.3232 10.8805 41.4883 12.8605L42.8584 15.2199C44.0438 17.1999 43.3895 19.74 41.3457 20.8801C39.6085 21.9 38.9949 24.1601 40.0371 25.8801C40.3641 26.4201 40.7324 26.8803 41.3047 27.1603C42.02 27.5403 42.5716 28.1404 42.96 28.7404C43.7162 29.9804 43.6547 31.5 42.9189 32.84L41.4883 35.2404C40.732 36.5202 39.3221 37.3204 37.8711 37.3205C37.1557 37.3205 36.3582 37.1199 35.7041 36.7199C35.1728 36.3801 34.5592 36.2599 33.9053 36.2599C31.882 36.2602 30.1853 37.9207 30.124 39.9006C30.1238 42.2004 28.2439 44.0002 25.8936 44.0002H23.1143C20.7435 44.0002 18.8625 42.2004 18.8623 39.9006C18.8214 37.9206 17.125 36.2599 15.1016 36.2599C14.4271 36.26 13.8137 36.3799 13.3027 36.7199C12.6488 37.1198 11.8316 37.3205 11.1367 37.3205C9.66512 37.3205 8.2543 36.5204 7.49805 35.2404L6.08789 32.84C5.3318 31.5402 5.29085 29.9803 6.04688 28.7404C6.3739 28.1404 6.98769 27.5403 7.68262 27.1603C8.25479 26.8803 8.62231 26.42 8.96973 25.8801C9.99167 24.1601 9.37886 21.9001 7.6416 20.8801C5.61813 19.7401 4.96387 17.1999 6.12891 15.2199L7.49805 12.8605C8.68344 10.8807 11.2179 10.1804 13.2617 11.34C15.0399 12.3 17.3502 11.6601 18.3926 9.96014C18.7195 9.40023 18.9031 8.80028 18.8623 8.20038C18.8214 7.42045 19.0463 6.68023 19.4346 6.08026C20.1908 4.84026 21.5607 4.04018 23.0527 4.00018H25.9346ZM24.5244 18.3605C21.3156 18.3605 18.72 20.8799 18.7197 24.0197C18.7197 27.1597 21.3155 29.6603 24.5244 29.6603C27.7332 29.6602 30.2676 27.1596 30.2676 24.0197C30.2673 20.88 27.7331 18.3607 24.5244 18.3605Z" fill="url(#paint0_linear_6089_10792)"/>
<defs>
<linearGradient id="paint0_linear_6089_10792" x1="43.4997" y1="44.0002" x2="-2.06106" y2="31.4509" gradientUnits="userSpaceOnUse">
<stop stop-color="#019B83"/>
<stop offset="1" stop-color="#18C6AB"/>
</linearGradient>
</defs>
</svg>
