<svg width="97" height="96" viewBox="0 0 97 96" fill="none" xmlns="http://www.w3.org/2000/svg">
<path d="M35.2383 40.9453H54.8729V44.1267H35.2383V40.9453Z" fill="#BFBFBF"/>
<path d="M35.2383 48.6523H54.8729V51.8334H35.2383V48.6523Z" fill="#BFBFBF"/>
<path d="M76.1602 33.957C76.1602 28.2988 71.557 23.6953 65.8988 23.6953C61.7433 23.6953 58.1564 26.1781 56.5448 29.7382H28.1257C24.6297 29.7382 21.7852 32.583 21.7852 36.0787V56.4378C21.7852 59.9341 24.6297 62.779 28.1257 62.779H29.8415V71.8858L43.4439 62.779H61.1533C64.6499 62.779 67.4945 59.9341 67.4945 56.4378V44.0942C72.397 43.3253 76.1602 39.0722 76.1602 33.957ZM61.1533 59.5973H42.4775L33.0226 65.9272V59.5973H28.1257C26.3837 59.5973 24.9662 58.1802 24.9662 56.4378V36.0787C24.9662 34.337 26.3837 32.9199 28.1257 32.9199H55.6895C55.655 33.2607 55.6371 33.6069 55.6371 33.957C55.6371 39.0756 59.4049 43.3312 64.3128 44.0959V56.4378C64.3128 58.1802 62.8953 59.5973 61.1533 59.5973ZM65.8988 41.037C61.9949 41.037 58.8188 37.8609 58.8188 33.957C58.8188 30.0528 61.9949 26.8764 65.8988 26.8764C69.8027 26.8764 72.9791 30.0528 72.9791 33.957C72.9791 37.8609 69.8027 41.037 65.8988 41.037Z" fill="#BFBFBF"/>
<path d="M64.3086 30.1914H67.49V37.7204H64.3086V30.1914Z" fill="#BFBFBF"/>
</svg>
