<svg width="49" height="48" viewBox="0 0 49 48" fill="none" xmlns="http://www.w3.org/2000/svg">
<path d="M20.4268 38.4561C21.4276 38.2446 27.5188 38.2446 28.5186 38.4561C29.3732 38.6535 30.2979 39.115 30.2979 40.1221C30.248 41.0807 29.6853 41.9309 28.9082 42.4707C27.9005 43.2562 26.7177 43.7533 25.4814 43.9326C24.7977 44.0212 24.1257 44.0232 23.4658 43.9326C22.2276 43.7534 21.0448 43.2562 20.0391 42.4688C19.26 41.931 18.6973 41.0807 18.6475 40.1221C18.6475 39.1149 19.572 38.6535 20.4268 38.4561ZM24.5908 4C28.751 4.00012 33.0011 5.97383 35.5254 9.24902C37.1632 11.3579 37.914 13.4652 37.9141 16.7402V17.5928C37.9141 20.1045 38.5782 21.5849 40.0391 23.291C41.1462 24.548 41.5 26.1617 41.5 27.9121C41.5 29.6605 40.9253 31.3204 39.7744 32.668C38.2678 34.2833 36.1431 35.3148 33.9746 35.4941C30.832 35.762 27.6873 35.9873 24.501 35.9873C21.3127 35.9873 18.1699 35.8527 15.0273 35.4941C12.8569 35.3148 10.7322 34.2833 9.22754 32.668C8.07666 31.3204 7.50001 29.6605 7.5 27.9121C7.5 26.1617 7.85576 24.548 8.96094 23.291C10.4676 21.5849 11.0879 20.1045 11.0879 17.5928V16.7402C11.088 13.3765 11.927 11.1767 13.6543 9.02344C16.2224 5.88341 20.3386 4.00013 24.4111 4H24.5908Z" fill="url(#paint0_linear_6089_15267)"/>
<defs>
<linearGradient id="paint0_linear_6089_15267" x1="41.5" y1="44" x2="0.153305" y2="33.8101" gradientUnits="userSpaceOnUse">
<stop stop-color="#FF5A5F"/>
<stop offset="1" stop-color="#FF8A9B"/>
</linearGradient>
</defs>
</svg>
