<svg width="26" height="20" viewBox="0 0 26 20" fill="none" xmlns="http://www.w3.org/2000/svg">
<path d="M12.9395 12.9626C16.9425 12.9626 20.3604 13.5979 20.3604 16.1375C20.3601 18.6757 16.9643 19.3337 12.9395 19.3337C8.93641 19.3337 5.51855 18.6984 5.51855 16.1599C5.51888 13.6207 8.91467 12.9626 12.9395 12.9626ZM6.65918 11.4343C6.6819 11.4376 6.69324 11.4542 6.69531 11.4636C6.69844 11.4794 6.69226 11.5025 6.66309 11.5193C5.95485 11.8713 3.22098 13.4021 3.56445 16.6296C3.57908 16.7704 3.46804 16.8908 3.3291 16.8708C2.65608 16.7741 0.925513 16.3991 0.388672 15.2341C0.0912243 14.6176 0.0911729 13.9034 0.388672 13.2869C0.73966 12.5356 1.58604 12.0187 2.87402 11.7644C3.48305 11.6163 5.12774 11.406 6.65918 11.4343ZM19.3398 11.4333C20.8698 11.405 22.5146 11.6152 23.123 11.7644C24.4109 12.0176 25.2583 12.5348 25.6094 13.2859C25.9061 13.9027 25.9061 14.6184 25.6094 15.2341C25.0724 16.3993 23.3417 16.7732 22.6689 16.8699C22.5301 16.8908 22.418 16.7703 22.4326 16.6306C22.7762 13.4024 20.0438 11.8716 19.3359 11.5193C19.3059 11.5037 19.2988 11.4793 19.3018 11.4646C19.3038 11.4541 19.3169 11.4365 19.3398 11.4333ZM12.9395 0.666748C15.6649 0.666748 17.8506 2.86288 17.8506 5.60522C17.8505 8.34645 15.6649 10.5447 12.9395 10.5447C10.214 10.5447 8.0284 8.34645 8.02832 5.60522C8.02832 2.86288 10.214 0.666751 12.9395 0.666748ZM6.39062 1.48999C6.67669 1.48999 6.9505 1.52037 7.21777 1.57495C7.25329 1.58336 7.29356 1.60202 7.31445 1.63354C7.3381 1.67341 7.32086 1.72692 7.2959 1.76147C6.50511 2.87628 6.04883 4.23571 6.04883 5.69409C6.04883 7.09145 6.4661 8.39315 7.19727 9.47534C7.27244 9.58666 7.20577 9.73726 7.07324 9.7605C6.88939 9.79307 6.701 9.80993 6.50879 9.81519C4.59203 9.86557 2.8719 8.62454 2.39648 6.75659C1.69137 3.98175 3.75824 1.49013 6.39062 1.48999ZM19.6064 1.48999C22.2388 1.49013 24.3056 3.98175 23.6016 6.75659C23.1262 8.62461 21.4061 9.8656 19.4893 9.81519C19.297 9.80993 19.1076 9.79202 18.9248 9.7605C18.7923 9.73721 18.7256 9.58663 18.8008 9.47534C19.5319 8.39316 19.9492 7.09144 19.9492 5.69409C19.9492 4.23574 19.4929 2.87625 18.7021 1.76147C18.6772 1.7269 18.6589 1.67337 18.6836 1.63354C18.7045 1.60097 18.7437 1.58336 18.7803 1.57495C19.0465 1.52037 19.3204 1.48999 19.6064 1.48999Z" fill="white"/>
</svg>
