<svg width="42" height="42" viewBox="0 0 42 42" fill="none" xmlns="http://www.w3.org/2000/svg">
<path fill-rule="evenodd" clip-rule="evenodd" d="M30.7187 0.187547C33.7156 0.00024119 36.6709 1.04083 38.8978 3.08039C40.9374 5.30725 41.978 8.26253 41.8115 11.2802V30.7185C41.9988 33.7362 40.9374 36.6914 38.9186 38.9183C36.6917 40.9579 33.7156 41.9985 30.7187 41.8111H11.2803C8.26259 41.9985 5.30729 40.9579 3.08041 38.9183C1.04084 36.6914 0.000239864 33.7362 0.187548 30.7185V11.2802C0.000239864 8.26253 1.04084 5.30725 3.08041 3.08039C5.30729 1.04083 8.26259 0.00024119 11.2803 0.187547H30.7187ZM18.8767 31.0931L32.8832 17.0451C34.1527 15.7548 34.1527 13.6736 32.8832 12.4041L30.1776 9.69854C28.8873 8.40821 26.8061 8.40821 25.5157 9.69854L24.1213 11.1137C23.9132 11.3219 23.9132 11.6757 24.1213 11.8838C24.1213 11.8838 27.4304 15.172 27.4929 15.2553C27.7218 15.505 27.8675 15.838 27.8675 16.2126C27.8675 16.9619 27.2639 17.5862 26.4939 17.5862C26.1401 17.5862 25.8071 17.4405 25.5781 17.2116L22.1026 13.7568C21.9361 13.5903 21.6447 13.5903 21.4782 13.7568L11.5509 23.6841C10.8641 24.3709 10.4687 25.2866 10.4478 26.2647L10.323 31.1971C10.323 31.4677 10.4062 31.7174 10.5935 31.9047C10.7808 32.092 11.0306 32.1961 11.3011 32.1961H16.192C17.1909 32.1961 18.1483 31.8007 18.8767 31.0931Z" fill="#6949FF"/>
</svg>
