<svg width="41" height="41" viewBox="0 0 41 41" fill="none" xmlns="http://www.w3.org/2000/svg">
<path d="M27.7227 0.222168C31.5887 0.222168 34.7227 3.35617 34.7227 7.22217C34.7227 7.67575 34.6795 8.11925 34.5971 8.54881L34.5673 8.68099C38.1439 9.87159 40.7227 13.2457 40.7227 17.2222C40.7227 20.9704 38.4315 24.1834 35.1733 25.537L33.0013 38.551C32.8405 39.5154 32.0061 40.2222 31.0285 40.2222H10.4169C9.43924 40.2222 8.60486 39.5154 8.44412 38.551L6.38666 26.2102C3.2205 26.0296 0.722656 23.4176 0.722656 20.2222C0.722656 17.6074 2.3952 15.3834 4.72878 14.5614L4.72266 14.2222C4.72266 7.59475 10.0952 2.22217 16.7227 2.22217C18.5651 2.22217 20.3107 2.63739 21.8707 3.37937C23.1195 1.47915 25.2743 0.222168 27.7227 0.222168ZM14.7227 26.2222H10.4427L12.1107 36.2222H14.7227V26.2222ZM22.7227 26.2222H18.7227V36.2222H22.7227V26.2222ZM31.0007 26.2222H26.7227V36.2222H29.3327L31.0007 26.2222ZM16.7227 6.22217C12.4383 6.22217 8.9405 9.59011 8.73186 13.7571L8.722 14.15L8.72812 14.4893C8.75726 16.1047 7.81334 17.5674 6.35586 18.2156L6.05766 18.3342C5.26508 18.6134 4.72266 19.3666 4.72266 20.2222C4.72266 21.3268 5.6181 22.2222 6.72266 22.2222H31.7227C34.4841 22.2222 36.7227 19.9836 36.7227 17.2222C36.7227 14.4607 34.4841 12.2222 31.7227 12.2222C31.0513 12.2222 30.4061 12.3525 29.8111 12.6013L29.4603 12.7647C27.5269 13.7608 25.1733 13.0255 24.1345 11.1565L23.9951 10.8818C22.6979 8.06433 19.8783 6.22217 16.7227 6.22217ZM27.7227 4.22217C26.6299 4.22217 25.6737 4.80639 25.1491 5.67953C26.1755 6.69117 27.0189 7.88505 27.6285 9.20889C28.5159 8.75179 29.4903 8.43951 30.5203 8.30185C30.6517 7.96743 30.7227 7.60309 30.7227 7.22217C30.7227 5.56531 29.3795 4.22217 27.7227 4.22217Z" fill="url(#paint0_linear_6089_17717)"/>
<defs>
<linearGradient id="paint0_linear_6089_17717" x1="40.7227" y1="40.2222" x2="-6.87375" y2="26.422" gradientUnits="userSpaceOnUse">
<stop stop-color="#6949FF"/>
<stop offset="1" stop-color="#876DFF"/>
</linearGradient>
</defs>
</svg>
