<svg width="49" height="48" viewBox="0 0 49 48" fill="none" xmlns="http://www.w3.org/2000/svg">
<path fill-rule="evenodd" clip-rule="evenodd" d="M35.38 12.4728C35.46 12.6127 35.6 12.7125 35.78 12.7125C40.58 12.7125 44.5 16.6282 44.5 21.4229V33.2897C44.5 38.0844 40.58 42 35.78 42H13.22C8.4 42 4.5 38.0844 4.5 33.2897V21.4229C4.5 16.6282 8.4 12.7125 13.22 12.7125C13.38 12.7125 13.54 12.6326 13.6 12.4728L13.72 12.2331C13.789 12.0879 13.8597 11.9389 13.9316 11.7875C14.4432 10.7098 15.0093 9.51758 15.36 8.81687C16.28 7.01887 17.84 6.01998 19.78 6H29.2C31.14 6.01998 32.72 7.01887 33.64 8.81687C33.955 9.44615 34.4349 10.4598 34.8974 11.4368C34.9929 11.6384 35.0876 11.8385 35.18 12.0333L35.38 12.4728ZM33.92 20.1443C33.92 21.1432 34.72 21.9423 35.72 21.9423C36.72 21.9423 37.54 21.1432 37.54 20.1443C37.54 19.1454 36.72 18.3263 35.72 18.3263C34.72 18.3263 33.92 19.1454 33.92 20.1443ZM21.04 23.2408C21.98 22.3019 23.2 21.8024 24.5 21.8024C25.8 21.8024 27.02 22.3019 27.94 23.2209C28.86 24.1398 29.36 25.3585 29.36 26.657C29.34 29.3341 27.18 31.5117 24.5 31.5117C23.2 31.5117 21.98 31.0122 21.06 30.0932C20.14 29.1742 19.64 27.9556 19.64 26.657V26.6371C19.62 25.3785 20.12 24.1598 21.04 23.2408ZM30.04 32.2109C28.62 33.6293 26.66 34.5083 24.5 34.5083C22.4 34.5083 20.44 33.6892 18.94 32.2109C17.46 30.7125 16.64 28.7547 16.64 26.657C16.62 24.5794 17.44 22.6215 18.92 21.1232C20.42 19.6249 22.4 18.8058 24.5 18.8058C26.6 18.8058 28.58 19.6249 30.06 21.1032C31.54 22.6016 32.36 24.5794 32.36 26.657C32.34 28.8346 31.46 30.7925 30.04 32.2109Z" fill="url(#paint0_linear_6089_15759)"/>
<defs>
<linearGradient id="paint0_linear_6089_15759" x1="44.5" y1="42" x2="-2.2461" y2="26.9404" gradientUnits="userSpaceOnUse">
<stop stop-color="#6949FF"/>
<stop offset="1" stop-color="#876DFF"/>
</linearGradient>
</defs>
</svg>
