<svg width="49" height="48" viewBox="0 0 49 48" fill="none" xmlns="http://www.w3.org/2000/svg">
<path d="M47.5954 9.00596C47.0226 6.66465 46.1991 4.6419 45.2378 3.10515C44.5984 2.07952 43.8987 1.2744 43.199 0.719587C42.7996 0.402524 42.4018 0.167868 42.0124 0.00661817C41.5658 -0.177038 41.1331 -0.264038 40.6888 -0.264038C40.3134 -0.264038 39.9473 -0.202538 39.5734 -0.0721318C39.2004 0.0568682 38.8195 0.254774 38.4356 0.527587C37.6655 1.0704 36.886 1.92202 36.1793 3.04206C35.708 3.78877 35.2668 4.65249 34.8728 5.61287C34.3473 6.89406 33.9052 8.34849 33.5732 9.92884C33.1297 12.0377 32.882 14.3701 32.8828 16.823C32.882 19.6389 33.2094 22.2973 33.7837 24.6393C34.355 26.9814 35.1785 29.0042 36.1399 30.5395C36.7793 31.565 37.479 32.3717 38.1779 32.9251C38.578 33.2422 38.9758 33.4784 39.366 33.6388C39.8118 33.8218 40.2437 33.9087 40.6888 33.9102C41.0642 33.9102 41.4295 33.8472 41.8042 33.7183C42.1772 33.5879 42.558 33.3914 42.9436 33.1186C43.7129 32.5742 44.4916 31.7241 45.1991 30.6025C45.6704 29.8573 46.1107 28.9936 46.5056 28.0326C47.0304 26.7506 47.4731 25.2962 47.8044 23.7158C48.2479 21.6077 48.4948 19.2753 48.4948 16.8231C48.4964 14.0064 48.1689 11.3473 47.5954 9.00596ZM43.1719 18.2265C43.0659 18.6583 42.9118 19.0488 42.7036 19.3847C42.5627 19.6089 42.3971 19.8098 42.1897 19.9755C42.0705 20.07 41.9373 20.1525 41.7873 20.214C41.6177 20.2837 41.4265 20.3257 41.2307 20.3257C41.0659 20.3257 40.9033 20.2957 40.7547 20.2447C40.606 20.1923 40.4714 20.1202 40.3507 20.0348C40.1092 19.8624 39.9219 19.6434 39.767 19.3991C39.6634 19.2348 39.5735 19.0579 39.4969 18.869C39.3939 18.6179 39.3119 18.3466 39.2516 18.0571C39.1703 17.6718 39.1269 17.2572 39.1269 16.8232C39.1277 16.3239 39.1835 15.8501 39.2903 15.4183C39.3956 14.9865 39.5488 14.5967 39.7578 14.26C39.8988 14.0366 40.0644 13.8349 40.2718 13.6693C40.391 13.5755 40.5249 13.493 40.6742 13.4316C40.8437 13.3611 41.0349 13.3191 41.2307 13.3191C41.3955 13.3191 41.5581 13.3491 41.7067 13.4009C41.8554 13.4526 41.99 13.5245 42.1108 13.61C42.3523 13.7824 42.5388 14.0013 42.6944 14.2465C42.7981 14.4107 42.8879 14.5868 42.9645 14.7758C43.0675 15.027 43.1495 15.299 43.2099 15.5877C43.2911 15.9731 43.3345 16.3884 43.3345 16.8232C43.3345 17.3207 43.2772 17.7946 43.1719 18.2265Z" fill="url(#paint0_linear_6089_15547)"/>
<path d="M32.6914 28.2899V33.9096H36.2394C35.693 33.3263 35.189 32.6667 34.7255 31.9349C34.3469 31.3359 33.0877 29.5374 32.6914 28.2899Z" fill="url(#paint1_linear_6089_15547)"/>
<path d="M36.2353 -0.264038H8.29631C7.92163 -0.264038 7.55779 -0.201038 7.18476 -0.0721318C6.81172 0.0568682 6.43085 0.253181 6.0462 0.527587C5.2768 1.0704 4.49734 1.92202 3.78989 3.04206C3.31852 3.78877 2.87812 4.65249 2.48417 5.61287C1.9586 6.89406 1.51587 8.34849 1.18455 9.92884C0.74183 12.0377 0.494141 14.3701 0.494141 16.823V17.4175H1.9493V18.6073H0.494237V47.736C0.545343 47.694 0.597998 47.6512 0.655202 47.6062H0.673786C2.56548 47.5845 2.55696 46.0716 4.44933 46.0724C6.34112 46.0731 6.34035 47.6086 8.23282 47.61C10.123 47.6107 10.1245 46.0754 12.0147 46.0761C13.9047 46.0769 13.9033 47.6116 15.7934 47.613C17.682 47.6145 17.6828 46.0791 19.5714 46.0799C21.4607 46.0806 21.4601 47.616 23.3494 47.6175C25.2396 47.619 25.2396 46.0829 27.1297 46.0835C29.0191 46.0843 29.0098 47.5994 30.8992 47.6205C30.9495 47.661 30.996 47.6985 31.0416 47.7344V18.6072H28.8513V17.4174H31.0416V16.8229C31.0416 13.8151 31.3884 10.9678 32.013 8.4173C32.6393 5.86684 33.5402 3.61168 34.6796 1.78468C35.1547 1.0239 35.6718 0.335681 36.2353 -0.264038ZM7.17556 18.6073H4.46027V17.4175H7.17556V18.6073ZM13.5109 18.6073H10.7956V17.4175H13.5109V18.6073ZM19.8462 18.6073H17.1309V17.4175H19.8462V18.6073ZM26.1823 18.6073H23.467V17.4175H26.1823V18.6073Z" fill="url(#paint2_linear_6089_15547)"/>
<defs>
<linearGradient id="paint0_linear_6089_15547" x1="48.4948" y1="33.9102" x2="28.7035" y2="31.2887" gradientUnits="userSpaceOnUse">
<stop stop-color="#12D18E"/>
<stop offset="1" stop-color="#71E3BB"/>
</linearGradient>
<linearGradient id="paint1_linear_6089_15547" x1="36.2394" y1="33.9096" x2="31.8111" y2="33.099" gradientUnits="userSpaceOnUse">
<stop stop-color="#12D18E"/>
<stop offset="1" stop-color="#71E3BB"/>
</linearGradient>
<linearGradient id="paint2_linear_6089_15547" x1="36.2353" y1="47.736" x2="-7.8155" y2="38.2257" gradientUnits="userSpaceOnUse">
<stop stop-color="#12D18E"/>
<stop offset="1" stop-color="#71E3BB"/>
</linearGradient>
</defs>
</svg>
