<svg width="49" height="48" viewBox="0 0 49 48" fill="none" xmlns="http://www.w3.org/2000/svg">
<path d="M25.2469 23.7207C19.7241 23.7207 15.247 19.2435 15.247 13.7207C15.247 8.19786 19.7241 3.7207 25.2469 3.7207C30.7699 3.7207 35.2469 8.19786 35.2469 13.7207C35.2469 19.2435 30.7699 23.7207 25.2469 23.7207ZM37.2469 33.7207V43.7207H33.2469V33.7207C33.2469 24.8181 38.5349 17.1507 46.1411 13.6877L47.7967 17.3301C41.5735 20.1633 37.2469 26.4369 37.2469 33.7207ZM17.247 33.7207V43.7207H13.247V33.7207C13.247 26.4369 8.92055 20.1633 2.69727 17.3301L4.35287 13.6877C11.9591 17.1507 17.247 24.8181 17.247 33.7207Z" fill="url(#paint0_linear_6089_11368)"/>
<defs>
<linearGradient id="paint0_linear_6089_11368" x1="47.7967" y1="43.7207" x2="-4.76213" y2="26.539" gradientUnits="userSpaceOnUse">
<stop stop-color="#019B83"/>
<stop offset="1" stop-color="#18C6AB"/>
</linearGradient>
</defs>
</svg>
