<svg width="49" height="48" viewBox="0 0 49 48" fill="none" xmlns="http://www.w3.org/2000/svg">
<path d="M24.6309 44.3706C13.5852 44.3706 4.63086 35.4162 4.63086 24.3706C4.63086 13.3249 13.5852 4.37061 24.6309 4.37061C35.6765 4.37061 44.6309 13.3249 44.6309 24.3706C44.6309 35.4162 35.6765 44.3706 24.6309 44.3706ZM24.6309 40.3706C33.4675 40.3706 40.6309 33.2072 40.6309 24.3706C40.6309 15.534 33.4675 8.37061 24.6309 8.37061C15.7943 8.37061 8.63086 15.534 8.63086 24.3706C8.63086 33.2072 15.7943 40.3706 24.6309 40.3706ZM14.6309 26.3706H18.6309C18.6309 29.6844 21.3171 32.3706 24.6309 32.3706C27.9447 32.3706 30.6309 29.6844 30.6309 26.3706H34.6309C34.6309 31.8934 30.1537 36.3706 24.6309 36.3706C19.108 36.3706 14.6309 31.8934 14.6309 26.3706ZM16.6309 22.3706C14.974 22.3706 13.6309 21.0274 13.6309 19.3706C13.6309 17.7137 14.974 16.3706 16.6309 16.3706C18.2877 16.3706 19.6309 17.7137 19.6309 19.3706C19.6309 21.0274 18.2877 22.3706 16.6309 22.3706ZM32.6309 22.3706C30.9741 22.3706 29.6309 21.0274 29.6309 19.3706C29.6309 17.7137 30.9741 16.3706 32.6309 16.3706C34.2877 16.3706 35.6309 17.7137 35.6309 19.3706C35.6309 21.0274 34.2877 22.3706 32.6309 22.3706Z" fill="url(#paint0_linear_6089_16518)"/>
<defs>
<linearGradient id="paint0_linear_6089_16518" x1="44.6309" y1="44.3706" x2="-2.96555" y2="30.5705" gradientUnits="userSpaceOnUse">
<stop stop-color="#246BFD"/>
<stop offset="1" stop-color="#5089FD"/>
</linearGradient>
</defs>
</svg>
