<svg width="56" height="56" viewBox="0 0 56 56" fill="none" xmlns="http://www.w3.org/2000/svg">
<rect width="56" height="56" rx="28" fill="#019B83" fill-opacity="0.08"/>
<path d="M25.1348 36.7733V33.7156C25.1348 32.9351 25.7722 32.3023 26.5584 32.3023H29.4326C29.8102 32.3023 30.1723 32.4512 30.4393 32.7163C30.7063 32.9813 30.8563 33.3408 30.8563 33.7156V36.7733C30.8539 37.0978 30.9821 37.4099 31.2124 37.6402C31.4427 37.8705 31.7561 38 32.0829 38H34.0438C34.9596 38.0023 35.8388 37.6428 36.4872 37.0008C37.1356 36.3588 37.5 35.487 37.5 34.5778V25.8669C37.5 25.1325 37.1721 24.4358 36.6046 23.9647L29.934 18.6759C28.7737 17.7486 27.1111 17.7785 25.9854 18.747L19.467 23.9647C18.8727 24.422 18.5176 25.1206 18.5 25.8669V34.5689C18.5 36.4639 20.0474 38 21.9562 38H23.8723C24.5512 38 25.103 37.4562 25.1079 36.7822L25.1348 36.7733Z" fill="url(#paint0_linear_5452_17094)"/>
<defs>
<linearGradient id="paint0_linear_5452_17094" x1="37.5" y1="38" x2="14.7195" y2="31.7252" gradientUnits="userSpaceOnUse">
<stop stop-color="#019B83"/>
<stop offset="1" stop-color="#18C6AB"/>
</linearGradient>
</defs>
</svg>
