<svg width="56" height="56" viewBox="0 0 56 56" fill="none" xmlns="http://www.w3.org/2000/svg">
<rect width="56" height="56" rx="28" fill="#FF5A5F" fill-opacity="0.08"/>
<path d="M27.4932 18C29.9755 18.0002 32 19.9906 32 22.4404V27.2305H25.8955C25.458 27.2305 25.1123 27.57 25.1123 28C25.1123 28.42 25.458 28.7695 25.8955 28.7695H32V33.5498C32 35.9997 29.9754 37.9999 27.4727 38H22.5176C20.0248 38 18 36.0096 18 33.5596V22.4502C18 19.9903 20.0347 18.0001 22.5273 18H27.4932ZM34.54 24.5498C34.84 24.24 35.3299 24.2403 35.6299 24.54L38.5498 27.4502C38.6998 27.6001 38.7802 27.7901 38.7803 28C38.7803 28.2 38.6998 28.4 38.5498 28.54L35.6299 31.4502C35.4799 31.6001 35.2798 31.6807 35.0898 31.6807C34.89 31.6806 34.69 31.6001 34.54 31.4502C34.2402 31.1502 34.2402 30.6603 34.54 30.3604L36.1406 28.7705H32V27.2305H36.1406L34.54 25.6406C34.24 25.3406 34.24 24.8498 34.54 24.5498Z" fill="url(#paint0_linear_5452_16928)"/>
<defs>
<linearGradient id="paint0_linear_5452_16928" x1="38.7802" y1="38" x2="14.2052" y2="30.5968" gradientUnits="userSpaceOnUse">
<stop stop-color="#FF5A5F"/>
<stop offset="1" stop-color="#FF8A9B"/>
</linearGradient>
</defs>
</svg>
