<svg width="56" height="56" viewBox="0 0 56 56" fill="none" xmlns="http://www.w3.org/2000/svg">
<rect width="56" height="56" rx="28" fill="#FF5A5F" fill-opacity="0.08"/>
<path d="M25.9629 35.2275C26.4627 35.1218 29.5075 35.1219 30.0088 35.2275C30.4361 35.3262 30.8983 35.5572 30.8984 36.0605C30.8736 36.54 30.5927 36.9654 30.2041 37.2354C29.7002 37.6281 29.1084 37.8772 28.4902 37.9668C28.1485 38.0111 27.8123 38.0121 27.4824 37.9668C26.8634 37.8771 26.2723 37.628 25.7695 37.2344C25.3799 36.9655 25.0981 36.54 25.0732 36.0605C25.0734 35.5572 25.5357 35.3262 25.9629 35.2275ZM28.0449 18C30.1251 18 32.2505 18.9874 33.5127 20.625C34.3314 21.6794 34.707 22.7327 34.707 24.3701V24.7959C34.707 26.0518 35.0391 26.7925 35.7695 27.6455C36.3231 28.274 36.5 29.0808 36.5 29.9561C36.5 30.8302 36.213 31.6602 35.6377 32.334C34.8844 33.1417 33.8216 33.6574 32.7373 33.7471C31.1662 33.881 29.594 33.9941 28.001 33.9941C26.4068 33.9941 24.835 33.9263 23.2637 33.7471C22.1784 33.6574 21.1156 33.1417 20.3633 32.334C19.7879 31.6602 19.5 30.8302 19.5 29.9561C19.5 29.0808 19.6779 28.274 20.2305 27.6455C20.9838 26.7925 21.2939 26.0518 21.2939 24.7959V24.3701C21.294 22.6883 21.7135 21.5883 22.5771 20.5117C23.8612 18.9416 25.9197 18 27.9561 18H28.0449Z" fill="url(#paint0_linear_5452_16898)"/>
<defs>
<linearGradient id="paint0_linear_5452_16898" x1="36.5" y1="38.0004" x2="15.8266" y2="32.9055" gradientUnits="userSpaceOnUse">
<stop stop-color="#FF5A5F"/>
<stop offset="1" stop-color="#FF8A9B"/>
</linearGradient>
</defs>
</svg>
