<svg width="56" height="56" viewBox="0 0 56 56" fill="none" xmlns="http://www.w3.org/2000/svg">
<rect width="56" height="56" rx="28" fill="#246BFD" fill-opacity="0.08"/>
<path d="M23.4268 34.9082C24.2559 34.9085 24.9355 35.6019 24.9355 36.459C24.9355 37.3059 24.2559 37.9998 23.4268 38C22.5874 38 21.9072 37.306 21.9072 36.459C21.9073 35.6018 22.5874 34.9082 23.4268 34.9082ZM34.668 34.9082C35.4971 34.9084 36.1767 35.6019 36.1768 36.459C36.1768 37.3059 35.4971 37.9998 34.668 38C33.8286 38 33.1484 37.306 33.1484 36.459C33.1485 35.6018 33.8286 34.9082 34.668 34.9082ZM18.0107 18.6406C18.0807 18.2233 18.4703 17.9466 18.8799 18.0088L21.2637 18.375C21.6032 18.4374 21.8528 18.7225 21.8828 19.0693L22.0723 21.3555C22.1024 21.6827 22.3622 21.9275 22.6816 21.9277H36.1768C36.7862 21.9278 37.1863 22.1419 37.5859 22.6113C37.9854 23.0807 38.0547 23.7541 37.9648 24.3652L37.0156 31.0596C36.8358 32.3463 35.7571 33.2947 34.4883 33.2949H23.5859C22.2573 33.2947 21.1589 32.255 21.0488 30.9082L20.1289 19.7832L18.6201 19.5186C18.2205 19.4471 17.9409 19.0487 18.0107 18.6406ZM30.1211 25.7021C29.7015 25.7023 29.3721 26.0392 29.3721 26.4678C29.3721 26.8861 29.7015 27.2333 30.1211 27.2334H32.8887C33.3083 27.2334 33.6387 26.8862 33.6387 26.4678C33.6387 26.0392 33.3083 25.7021 32.8887 25.7021H30.1211Z" fill="url(#paint0_linear_5452_16908)"/>
<defs>
<linearGradient id="paint0_linear_5452_16908" x1="37.9997" y1="37.9999" x2="14.2018" y2="31.1" gradientUnits="userSpaceOnUse">
<stop stop-color="#246BFD"/>
<stop offset="1" stop-color="#5089FD"/>
</linearGradient>
</defs>
</svg>
