<svg width="56" height="56" viewBox="0 0 56 56" fill="none" xmlns="http://www.w3.org/2000/svg">
<rect width="56" height="56" rx="28" fill="#6949FF" fill-opacity="0.08"/>
<path d="M27.9785 18C30.3461 18 32.4387 19.4621 33.2109 21.6279C33.2922 21.8466 33.2715 22.0853 33.1699 22.2939C33.0683 22.5026 32.8866 22.6619 32.6621 22.7324C32.2049 22.8904 31.6972 22.6525 31.5244 22.1953C31.0062 20.7233 29.5842 19.7393 27.999 19.7393C25.9251 19.7393 24.2495 21.3704 24.2383 23.3672V24.709L24.2256 24.7109H32.2314C34.5888 24.7111 36.5 26.5809 36.5 28.8867V33.8242C36.5 36.1301 34.5888 37.9999 32.2314 38H23.7676C21.4112 37.9999 19.5 36.1301 19.5 33.8242V28.8867C19.5 26.9904 20.8004 25.4064 22.5703 24.8975L22.46 24.9111V23.3867C22.4805 20.4161 24.9506 18.0001 27.9785 18ZM27.9951 29.3828C27.5074 29.3828 27.1115 29.7701 27.1113 30.2471V32.4541C27.1115 32.941 27.5075 33.3281 27.9951 33.3281C28.4928 33.328 28.8885 32.9409 28.8887 32.4541V30.2471C28.8885 29.7701 28.4929 29.3829 27.9951 29.3828Z" fill="url(#paint0_linear_5452_16903)"/>
<defs>
<linearGradient id="paint0_linear_5452_16903" x1="36.5" y1="38" x2="15.8267" y2="32.9051" gradientUnits="userSpaceOnUse">
<stop stop-color="#6949FF"/>
<stop offset="1" stop-color="#876DFF"/>
</linearGradient>
</defs>
</svg>
