<svg width="56" height="56" viewBox="0 0 56 56" fill="none" xmlns="http://www.w3.org/2000/svg">
<rect width="56" height="56" rx="28" fill="#FF9800" fill-opacity="0.08"/>
<path d="M28 31.1738C32.3384 31.1738 35.9997 31.8789 36 34.5986C36 37.3197 32.3146 38 28 38C23.6625 38 20.0002 37.295 20 34.5752C20 31.8542 23.6854 31.1738 28 31.1738ZM28 18C30.9391 18 33.2939 20.354 33.2939 23.291C33.2939 26.228 30.9391 28.583 28 28.583C25.0619 28.583 22.7061 26.228 22.7061 23.291C22.7061 20.354 25.0619 18 28 18Z" fill="url(#paint0_linear_5452_16893)"/>
<defs>
<linearGradient id="paint0_linear_5452_16893" x1="36" y1="38" x2="16.4147" y2="33.4571" gradientUnits="userSpaceOnUse">
<stop stop-color="#FB9400"/>
<stop offset="1" stop-color="#FFAB38"/>
</linearGradient>
</defs>
</svg>
