<svg width="56" height="56" viewBox="0 0 56 56" fill="none" xmlns="http://www.w3.org/2000/svg">
<rect width="56" height="56" rx="28" fill="#6949FF" fill-opacity="0.08"/>
<path d="M28.7168 18C29.473 18 30.158 18.4201 30.5361 19.04C30.72 19.3399 30.843 19.7098 30.8125 20.0996C30.7921 20.3996 30.8834 20.7005 31.0469 20.9805C31.5681 21.8304 32.7238 22.1499 33.623 21.6699C34.6346 21.0903 35.9116 21.44 36.4941 22.4297L37.1787 23.6104C37.7714 24.6003 37.4448 25.8705 36.4229 26.4404C35.5543 26.9505 35.2474 28.0805 35.7686 28.9404C35.932 29.2103 36.1163 29.4401 36.4023 29.5801C36.76 29.7701 37.0363 30.0701 37.2305 30.3701C37.6084 30.99 37.5777 31.75 37.21 32.4199L36.4941 33.6201C36.116 34.26 35.411 34.6601 34.6855 34.6602C34.328 34.6602 33.9295 34.5602 33.6025 34.3604C33.3369 34.1904 33.0301 34.1299 32.7031 34.1299C31.6914 34.1299 30.8432 34.9602 30.8125 35.9502C30.8124 37.0999 29.8722 37.9998 28.6973 38H27.3066C26.1214 37.9999 25.1817 37.1 25.1816 35.9502C25.1612 34.9602 24.3125 34.1299 23.3008 34.1299C22.9636 34.1299 22.6568 34.1904 22.4014 34.3604C22.0744 34.5602 21.6657 34.6601 21.3184 34.6602C20.5826 34.6602 19.8772 34.2601 19.499 33.6201L18.7939 32.4199C18.4159 31.77 18.3954 30.9901 18.7734 30.3701C18.9369 30.0702 19.2435 29.7701 19.5908 29.5801C19.8769 29.4401 20.0616 29.2104 20.2354 28.9404C20.7463 28.0804 20.439 26.9504 19.5703 26.4404C18.5588 25.8704 18.2322 24.6003 18.8145 23.6104L19.499 22.4297C20.0918 21.4399 21.359 21.0901 22.3809 21.6699C23.2699 22.1499 24.425 21.8302 24.9463 20.9805C25.1098 20.7005 25.2021 20.3996 25.1816 20.0996C25.1613 19.7097 25.2737 19.3399 25.4678 19.04C25.8459 18.4201 26.5304 18.02 27.2764 18H28.7168ZM28.0117 25.1797C26.4075 25.1799 25.1095 26.44 25.1094 28.0098C25.1094 29.5796 26.4074 30.8299 28.0117 30.8301C29.6162 30.8301 30.8838 29.5798 30.8838 28.0098C30.8837 26.4399 29.6161 25.1797 28.0117 25.1797Z" fill="url(#paint0_linear_5480_15375)"/>
<defs>
<linearGradient id="paint0_linear_5480_15375" x1="37.5" y1="38" x2="14.7195" y2="31.7252" gradientUnits="userSpaceOnUse">
<stop stop-color="#6949FF"/>
<stop offset="1" stop-color="#876DFF"/>
</linearGradient>
</defs>
</svg>
