<svg width="56" height="56" viewBox="0 0 56 56" fill="none" xmlns="http://www.w3.org/2000/svg">
<rect width="56" height="56" rx="28" fill="#1BAC4B" fill-opacity="0.08"/>
<path d="M27.3408 18.1064C27.7333 17.9673 28.1708 17.9644 28.5703 18.0996L35.208 20.3262C35.951 20.5743 36.454 21.2576 36.458 22.0225L36.5 28.6631C36.513 30.6761 35.7785 32.6286 34.4346 34.1582C33.8165 34.8602 33.0243 35.4637 32.0127 36.0029L28.4453 37.9102C28.3337 37.9689 28.2106 37.999 28.0869 38C27.9633 38.001 27.8391 37.9718 27.7285 37.9141L24.127 36.0508C23.1041 35.5203 22.3048 34.9257 21.6807 34.2334C20.3145 32.7194 19.5551 30.7759 19.542 28.7598L19.5 22.124C19.496 21.3582 19.9896 20.671 20.7285 20.4131L27.3408 18.1064ZM31.7451 25.2188C31.4481 24.9334 30.9697 24.9353 30.6768 25.2246L27.3086 28.5449L25.9287 27.2188C25.6317 26.9336 25.1542 26.9364 24.8604 27.2256C24.5674 27.5149 24.5712 27.9803 24.8682 28.2656L26.7832 30.1094C26.9322 30.2525 27.126 30.3223 27.3193 30.3203C27.5124 30.3193 27.7047 30.2474 27.8516 30.1025L31.751 26.2578C32.0437 25.9686 32.0408 25.5041 31.7451 25.2188Z" fill="url(#paint0_linear_5480_15365)"/>
<defs>
<linearGradient id="paint0_linear_5480_15365" x1="36.5" y1="38" x2="15.8267" y2="32.9051" gradientUnits="userSpaceOnUse">
<stop stop-color="#12D18E"/>
<stop offset="1" stop-color="#71E3BB"/>
</linearGradient>
</defs>
</svg>
