<svg width="21" height="21" viewBox="0 0 21 21" fill="none" xmlns="http://www.w3.org/2000/svg">
<path fill-rule="evenodd" clip-rule="evenodd" d="M10.2728 18.7607C10.3651 18.8089 10.4683 18.8335 10.5715 18.8326C10.6746 18.8318 10.777 18.8065 10.8701 18.7575L13.8433 17.1681C14.6865 16.7186 15.3467 16.2161 15.8619 15.631C16.9819 14.3562 17.5934 12.7292 17.5825 11.0515L17.5473 5.51767C17.544 4.88028 17.1253 4.31152 16.5062 4.10478L10.975 2.24899C10.6419 2.13622 10.277 2.13867 9.94979 2.25471L4.43958 4.17669C3.82379 4.39161 3.4127 4.96444 3.41606 5.60265L3.4513 11.1324C3.4622 12.8125 4.09477 14.4322 5.23322 15.6939C5.75337 16.2708 6.4195 16.766 7.27187 17.2081L10.2728 18.7607ZM9.48568 12.2568C9.60984 12.3761 9.77092 12.4349 9.932 12.4333C10.0931 12.4325 10.2533 12.372 10.3758 12.2511L13.6251 9.04776C13.8692 8.8067 13.8667 8.41936 13.62 8.18156C13.3725 7.94377 12.974 7.9454 12.7299 8.18646L9.92277 10.9534L8.77341 9.84859C8.52592 9.61079 8.12826 9.61324 7.88329 9.85431C7.63915 10.0954 7.64167 10.4827 7.88916 10.7205L9.48568 12.2568Z" fill="#616161"/>
</svg>
