<svg width="18" height="18" viewBox="0 0 18 18" fill="none" xmlns="http://www.w3.org/2000/svg">
<path d="M9.05404 17.4878C4.45166 17.4878 0.720703 13.7568 0.720703 9.15442C0.720703 4.55205 4.45166 0.821091 9.05404 0.821091C13.6564 0.821091 17.3874 4.55205 17.3874 9.15442C17.3874 13.7568 13.6564 17.4878 9.05404 17.4878ZM9.05404 15.8211C12.736 15.8211 15.7207 12.8363 15.7207 9.15442C15.7207 5.47252 12.736 2.48776 9.05404 2.48776C5.37214 2.48776 2.38737 5.47252 2.38737 9.15442C2.38737 12.8363 5.37214 15.8211 9.05404 15.8211ZM4.88737 9.98776H6.55404C6.55404 11.3685 7.67329 12.4878 9.05404 12.4878C10.4348 12.4878 11.554 11.3685 11.554 9.98776H13.2207C13.2207 12.2889 11.3552 14.1544 9.05404 14.1544C6.75285 14.1544 4.88737 12.2889 4.88737 9.98776ZM5.7207 8.32109C5.03034 8.32109 4.4707 7.76142 4.4707 7.07109C4.4707 6.38073 5.03034 5.82109 5.7207 5.82109C6.41106 5.82109 6.9707 6.38073 6.9707 7.07109C6.9707 7.76142 6.41106 8.32109 5.7207 8.32109ZM12.3874 8.32109C11.697 8.32109 11.1374 7.76142 11.1374 7.07109C11.1374 6.38073 11.697 5.82109 12.3874 5.82109C13.0777 5.82109 13.6374 6.38073 13.6374 7.07109C13.6374 7.76142 13.0777 8.32109 12.3874 8.32109Z" fill="url(#paint0_linear_6089_17148)"/>
<defs>
<linearGradient id="paint0_linear_6089_17148" x1="17.3874" y1="17.4878" x2="-2.44447" y2="11.7377" gradientUnits="userSpaceOnUse">
<stop stop-color="#6949FF"/>
<stop offset="1" stop-color="#876DFF"/>
</linearGradient>
</defs>
</svg>
