<svg width="24" height="24" viewBox="0 0 24 24" fill="none" xmlns="http://www.w3.org/2000/svg">
<path d="M17.9325 14.3766C17.6735 14.6276 17.5545 14.9906 17.6135 15.3466L18.5025 20.2666C18.5775 20.6836 18.4015 21.1056 18.0525 21.3466C17.7105 21.5966 17.2555 21.6266 16.8825 21.4266L12.4535 19.1166C12.2995 19.0346 12.1285 18.9906 11.9535 18.9856H11.6825C11.5885 18.9996 11.4965 19.0296 11.4125 19.0756L6.98255 21.3966C6.76355 21.5066 6.51555 21.5456 6.27255 21.5066C5.68055 21.3946 5.28555 20.8306 5.38255 20.2356L6.27255 15.3156C6.33155 14.9566 6.21255 14.5916 5.95355 14.3366L2.34255 10.8366C2.04055 10.5436 1.93555 10.1036 2.07355 9.70664C2.20755 9.31064 2.54955 9.02164 2.96255 8.95664L7.93255 8.23564C8.31055 8.19664 8.64255 7.96664 8.81255 7.62664L11.0025 3.13664C11.0545 3.03664 11.1215 2.94464 11.2025 2.86664L11.2925 2.79664C11.3395 2.74464 11.3935 2.70164 11.4535 2.66664L11.5625 2.62664L11.7325 2.55664H12.1535C12.5295 2.59564 12.8605 2.82064 13.0335 3.15664L15.2525 7.62664C15.4125 7.95364 15.7235 8.18064 16.0825 8.23564L21.0525 8.95664C21.4725 9.01664 21.8235 9.30664 21.9625 9.70664C22.0935 10.1076 21.9805 10.5476 21.6725 10.8366L17.9325 14.3766Z" fill="#6949FF"/>
</svg>
