<svg width="28" height="28" viewBox="0 0 28 28" fill="none" xmlns="http://www.w3.org/2000/svg">
<path d="M10.9082 17.334C15.5578 17.334 19.4824 18.0732 19.4824 20.9307C19.4822 23.7857 15.5325 24.5 10.9082 24.5C6.25865 24.5 2.33398 23.7608 2.33398 20.9033C2.33424 18.0483 6.28391 17.334 10.9082 17.334ZM18.165 15.6133C19.9331 15.5797 21.8348 15.8186 22.5371 15.9863C24.0254 16.2714 25.0038 16.8512 25.4092 17.6973C25.7528 18.3904 25.7528 19.1956 25.4092 19.8887C24.7894 21.1986 22.7904 21.62 22.0127 21.7285C21.8517 21.7509 21.7221 21.6168 21.7393 21.458C22.1363 17.8277 18.979 16.106 18.1611 15.71C18.1271 15.6911 18.1188 15.6644 18.1221 15.6465C18.1243 15.6353 18.1389 15.6167 18.165 15.6133ZM10.9082 3.5C14.0576 3.5 16.5818 5.9715 16.582 9.05566C16.582 12.1401 14.0578 14.6123 10.9082 14.6123C7.7598 14.6123 5.23438 12.1401 5.23438 9.05566C5.23464 5.9715 7.75996 3.5 10.9082 3.5ZM18.4736 4.42773C21.5158 4.4278 23.9037 7.22951 23.0898 10.3496C22.5408 12.4524 20.5535 13.849 18.3389 13.792C18.1163 13.7875 17.8979 13.7661 17.6855 13.7314C17.5328 13.7044 17.4551 13.5353 17.543 13.4102C18.3876 12.1929 18.87 10.7277 18.8701 9.15723C18.8701 7.5161 18.3441 5.98786 17.4297 4.73242C17.4 4.69333 17.3786 4.63371 17.4082 4.58789C17.431 4.55212 17.4773 4.53238 17.5195 4.52344C17.8277 4.46198 18.1438 4.42773 18.4736 4.42773Z" fill="white"/>
</svg>
