<svg width="16" height="16" viewBox="0 0 16 16" fill="none" xmlns="http://www.w3.org/2000/svg">
<path d="M12.4729 4.80657C12.411 4.74409 12.3373 4.6945 12.256 4.66065C12.1748 4.6268 12.0877 4.60938 11.9996 4.60938C11.9116 4.60938 11.8245 4.6268 11.7433 4.66065C11.662 4.6945 11.5883 4.74409 11.5263 4.80657L6.55964 9.77993L4.47297 7.6866C4.40863 7.6244 4.33267 7.57554 4.24943 7.54274C4.16619 7.50994 4.07731 7.49387 3.98785 7.4954C3.8984 7.49694 3.81013 7.51607 3.72807 7.55173C3.64602 7.5874 3.5718 7.63887 3.50964 7.70327C3.44748 7.7676 3.39861 7.84353 3.3658 7.9268C3.333 8.01 3.31691 8.09894 3.31846 8.18834C3.32001 8.2778 3.33916 8.36607 3.37482 8.44814C3.41048 8.5302 3.46196 8.6044 3.52631 8.6666L6.08631 11.2266C6.14828 11.2891 6.22201 11.3387 6.30325 11.3725C6.38449 11.4063 6.47163 11.4238 6.55964 11.4238C6.64765 11.4238 6.73481 11.4063 6.81601 11.3725C6.89728 11.3387 6.97101 11.2891 7.03295 11.2266L12.4729 5.78658C12.5406 5.72415 12.5947 5.64838 12.6316 5.56405C12.6685 5.47972 12.6876 5.38864 12.6876 5.29657C12.6876 5.20451 12.6685 5.11344 12.6316 5.0291C12.5947 4.94477 12.5406 4.869 12.4729 4.80657Z" fill="black"/>
</svg>
