<svg width="28" height="28" viewBox="0 0 28 28" fill="none" xmlns="http://www.w3.org/2000/svg">
<path opacity="0.4" d="M25.6673 14.0007C25.6673 20.4453 20.4442 25.6673 14.0007 25.6673C7.55715 25.6673 2.33398 20.4453 2.33398 14.0007C2.33398 7.55832 7.55715 2.33398 14.0007 2.33398C20.4442 2.33398 25.6673 7.55832 25.6673 14.0007Z" fill="#212121"/>
<path d="M18.169 18.4506C18.0162 18.4506 17.8622 18.4109 17.721 18.3281L13.1407 15.5957C12.877 15.4371 12.7148 15.1512 12.7148 14.8432V8.95508C12.7148 8.47208 13.1068 8.08008 13.5898 8.08008C14.0728 8.08008 14.4648 8.47208 14.4648 8.95508V14.3462L18.6182 16.8231C19.0323 17.0716 19.1688 17.6082 18.9215 18.0236C18.757 18.2977 18.4665 18.4506 18.169 18.4506Z" fill="#212121"/>
</svg>
