<svg width="42" height="38" viewBox="0 0 42 38" fill="none" xmlns="http://www.w3.org/2000/svg">
<path fill-rule="evenodd" clip-rule="evenodd" d="M33.0179 11.4621H41.8327C41.8327 4.38457 37.5919 0.25 30.4068 0.25H11.5919C4.40676 0.25 0.166016 4.38457 0.166016 11.3718V26.6282C0.166016 33.6154 4.40676 37.75 11.5919 37.75H30.4068C37.5919 37.75 41.8327 33.6154 41.8327 26.6282V25.9782H33.0179C28.9269 25.9782 25.6105 22.7448 25.6105 18.7563C25.6105 14.7677 28.9269 11.5343 33.0179 11.5343V11.4621ZM33.0179 14.5675H40.2771C41.1362 14.5675 41.8327 15.2465 41.8327 16.0841V21.3562C41.8227 22.1897 41.1321 22.863 40.2771 22.8728H33.1845C31.1135 22.8999 29.3024 21.5174 28.8327 19.5507C28.5974 18.3298 28.9277 17.0699 29.7349 16.1088C30.5421 15.1476 31.7438 14.5835 33.0179 14.5675ZM33.3327 20.1104H34.0179C34.8974 20.1104 35.6105 19.4152 35.6105 18.5577C35.6105 17.7001 34.8974 17.0049 34.0179 17.0049H33.3327C32.912 17.0001 32.5069 17.1597 32.2077 17.448C31.9084 17.7363 31.7401 18.1294 31.7401 18.5396C31.74 19.4001 32.4501 20.1005 33.3327 20.1104ZM10.0364 11.4621H21.7956C22.6752 11.4621 23.3882 10.7669 23.3882 9.90936C23.3882 9.05182 22.6752 8.35664 21.7956 8.35664H10.0364C9.164 8.35659 8.45394 9.04082 8.44379 9.89131C8.44374 10.7518 9.15384 11.4522 10.0364 11.4621Z" fill="url(#paint0_linear_5718_6014)"/>
<defs>
<linearGradient id="paint0_linear_5718_6014" x1="41.8327" y1="37.75" x2="-6.86117" y2="22.063" gradientUnits="userSpaceOnUse">
<stop stop-color="#6949FF"/>
<stop offset="1" stop-color="#876DFF"/>
</linearGradient>
</defs>
</svg>
